<svg width="39" height="9" viewBox="0 0 39 9" fill="none" xmlns="http://www.w3.org/2000/svg">
<path fill-rule="evenodd" clip-rule="evenodd" d="M0 4.5C0 4.22386 0.223858 4 0.5 4H37.5C37.7761 4 38 4.22386 38 4.5C38 4.77614 37.7761 5 37.5 5H0.5C0.223858 5 0 4.77614 0 4.5Z" fill="#2F2F3D"/>
<path fill-rule="evenodd" clip-rule="evenodd" d="M34.1464 0.646447C34.3417 0.451184 34.6583 0.451184 34.8536 0.646447L38.3536 4.14645C38.5488 4.34171 38.5488 4.65829 38.3536 4.85355L34.8536 8.35355C34.6583 8.54882 34.3417 8.54882 34.1464 8.35355C33.9512 8.15829 33.9512 7.84171 34.1464 7.64645L37.2929 4.5L34.1464 1.35355C33.9512 1.15829 33.9512 0.841709 34.1464 0.646447Z" fill="#2F2F3D"/>
</svg>
