<svg width="69" height="24" viewBox="0 0 69 24" fill="none" xmlns="http://www.w3.org/2000/svg">
<path d="M38.0029 11.8291H40.576L37.0141 16.2193L41.2501 21.1726H38.3737L34.5534 16.6445V21.1726H32.25V11.8291H34.5534V16.1388L38.0029 11.8291Z" fill="#82828E"/>
<path d="M47.3838 21.1726H45L49.0184 11.8291H51.4477L55.5002 21.1726H53.1277L50.2444 14.1248L49.3363 16.3631L47.3838 21.1726Z" fill="#82828E"/>
<path d="M66.8306 11.8291H69.0001V21.1726H67.0454L62.1587 15.3688V21.1726H60V11.8291H61.9225L66.8306 17.6559V11.8291Z" fill="#82828E"/>
<path d="M18.1401 23.5076H17.2336H7.09671H6.5015H0L12.2246 0.150391L24.5134 23.5076H18.1401ZM9.59658 18.0509H14.7337L12.1697 12.4327L9.59658 18.0509Z" fill="#82828E"/>
<path d="M36.9417 7.22736L36.9346 4.255L35.4767 6.70366H34.9601L33.5093 4.3187V7.22736H32.4336V2.27344H33.3819L35.2361 5.35194L37.062 2.27344H38.0032L38.0174 7.22736H36.9417Z" fill="#82828E"/>
<path d="M42.8091 6.1658H40.509L40.0703 7.22736H38.8955L41.1035 2.27344H42.2358L44.4509 7.22736H43.2478L42.8091 6.1658ZM42.4481 5.29533L41.6626 3.39868L40.877 5.29533H42.4481Z" fill="#82828E"/>
<path d="M45.3188 2.27344H47.5692C48.1071 2.27344 48.5813 2.37723 48.9917 2.58483C49.4069 2.7877 49.7277 3.0755 49.9542 3.44822C50.1854 3.82095 50.301 4.255 50.301 4.7504C50.301 5.24579 50.1854 5.67985 49.9542 6.05257C49.7277 6.42529 49.4069 6.71545 48.9917 6.92304C48.5813 7.12592 48.1071 7.22736 47.5692 7.22736H45.3188V2.27344ZM47.5126 6.28611C48.008 6.28611 48.402 6.14929 48.6945 5.87564C48.9917 5.59728 49.1403 5.2222 49.1403 4.7504C49.1403 4.27859 48.9917 3.90587 48.6945 3.63223C48.402 3.35386 48.008 3.21468 47.5126 3.21468H46.4652V6.28611H47.5126Z" fill="#82828E"/>
<path d="M55.3552 6.30734V7.22736H51.5194V2.27344H55.2632V3.19345H52.6588V4.26916H54.9589V5.16086H52.6588V6.30734H55.3552Z" fill="#82828E"/>
<path d="M62.6169 4.65132C62.9 4.74096 63.1218 4.89194 63.2822 5.10425C63.4426 5.31184 63.5228 5.56897 63.5228 5.87564C63.5228 6.3097 63.3529 6.64468 63.0133 6.88058C62.6783 7.11176 62.1876 7.22736 61.5412 7.22736H58.9793V2.27344H61.3997C62.0036 2.27344 62.466 2.38903 62.7868 2.62021C63.1123 2.85139 63.2751 3.16514 63.2751 3.56146C63.2751 3.80208 63.2161 4.01674 63.0982 4.20547C62.9849 4.39419 62.8245 4.5428 62.6169 4.65132ZM60.1187 3.13683V4.30454H61.2581C61.5412 4.30454 61.7559 4.255 61.9022 4.15593C62.0484 4.05685 62.1215 3.91059 62.1215 3.71715C62.1215 3.52371 62.0484 3.37981 61.9022 3.28545C61.7559 3.18637 61.5412 3.13683 61.2581 3.13683H60.1187ZM61.4563 6.36396C61.7583 6.36396 61.9847 6.31442 62.1357 6.21534C62.2914 6.11626 62.3692 5.96293 62.3692 5.75533C62.3692 5.34487 62.0649 5.13963 61.4563 5.13963H60.1187V6.36396H61.4563Z" fill="#82828E"/>
<path d="M67.0188 5.47225V7.22736H65.8724V5.4581L63.9545 2.27344H65.1717L66.4951 4.47439L67.8186 2.27344H68.9438L67.0188 5.47225Z" fill="#82828E"/>
</svg>
