<svg width="16" height="17" viewBox="0 0 16 17" fill="none" xmlns="http://www.w3.org/2000/svg">
<path d="M14.5838 9.9713C15.5994 5.41875 11.6072 1.28642 6.91454 2.07437C4.37561 0.498479 0.996216 2.28448 0.996216 5.31369C0.996216 6.01408 1.18882 6.67945 1.52151 7.23977C0.59349 11.8098 4.60324 15.8896 9.29587 15.0317C12.6052 16.7826 16.2473 13.2982 14.5838 9.9713ZM10.1363 12.7204C8.91066 13.2281 6.87952 13.2281 5.65383 12.5803C3.90285 11.6522 3.60518 9.55107 5.11103 9.55107C6.24916 9.55107 5.88146 10.8818 7.03711 11.4071C7.5624 11.6522 8.70054 11.6698 9.3484 11.232C9.99627 10.7943 9.94374 10.1114 9.59354 9.79621C8.66552 8.93822 5.98652 9.27091 4.76083 7.76506C4.23553 7.1172 4.13048 5.96155 4.77834 5.12108C5.91648 3.65025 9.26086 3.5627 10.6967 4.66582C12.0274 5.6989 11.6597 7.04716 10.5916 7.04716C9.31338 7.04716 9.97876 5.36622 7.89509 5.36622C6.38924 5.36622 5.79391 6.43432 6.86201 6.95961C8.29781 7.69502 11.9574 7.44989 11.9574 10.2515C11.9574 11.4071 11.2395 12.2651 10.1363 12.7204V12.7204Z" fill="#82828E"/>
</svg>
