<svg width="60" height="60" viewBox="0 0 60 60" fill="none" xmlns="http://www.w3.org/2000/svg">
<path d="M20 32.5V32.525" stroke="#2F2F3D" stroke-width="3" stroke-linecap="round" stroke-linejoin="round"/>
<path d="M30 42.5V42.525" stroke="#2F2F3D" stroke-width="3" stroke-linecap="round" stroke-linejoin="round"/>
<path d="M30 30V30.025" stroke="#2F2F3D" stroke-width="3" stroke-linecap="round" stroke-linejoin="round"/>
<path d="M40 35V35.025" stroke="#2F2F3D" stroke-width="3" stroke-linecap="round" stroke-linejoin="round"/>
<path d="M27.5 20V20.025" stroke="#2F2F3D" stroke-width="3" stroke-linecap="round" stroke-linejoin="round"/>
<path d="M32.87 8.68999L39.5375 11.45C38.2161 13.1885 37.5 15.3119 37.4988 17.4956C37.4976 19.6793 38.2112 21.8034 39.5307 23.5435C40.8502 25.2835 42.703 26.5438 44.806 27.1318C46.9091 27.7199 49.1469 27.6033 51.1775 26.8L51.31 27.13C52.0711 28.9676 52.0711 31.0324 51.31 32.87C50.0675 34.835 49.215 36.38 48.75 37.5C48.2775 38.64 47.7275 40.485 47.1 43.04C46.3382 44.8773 44.8778 46.3369 43.04 47.0975C40.42 47.755 38.5725 48.305 37.5 48.75C36.3125 49.2425 34.77 50.095 32.87 51.31C31.0324 52.0711 28.9676 52.0711 27.13 51.31C25.125 50.0525 23.5825 49.2 22.5 48.75C21.3225 48.2625 19.475 47.7125 16.96 47.1C15.1226 46.3382 13.6631 44.8778 12.9025 43.04C12.24 40.41 11.69 38.565 11.25 37.5C10.755 36.3025 9.89999 34.76 8.68999 32.87C7.92886 31.0324 7.92886 28.9676 8.68999 27.13C9.88999 25.27 10.74 23.7275 11.25 22.5C11.6775 21.4675 12.2275 19.62 12.9 16.96C13.6618 15.1226 15.1222 13.6631 16.96 12.9025C19.54 12.2625 21.385 11.7125 22.5 11.25C23.645 10.775 25.1875 9.92249 27.13 8.68999C28.9676 7.92886 31.0324 7.92886 32.87 8.68999V8.68999Z" stroke="#2F2F3D" stroke-width="1.75" stroke-linecap="round" stroke-linejoin="round"/>
</svg>
