<svg width="100" height="40" viewBox="0 0 100 40" fill="none" xmlns="http://www.w3.org/2000/svg">
<rect width="100" height="40" fill="#2F2F3D"/>
<path d="M27.54 21.38C27.42 23.2733 26.74 24.74 25.5 25.78C24.2733 26.82 22.7533 27.34 20.94 27.34C18.7933 27.34 17.0667 26.6267 15.76 25.2C14.4533 23.7733 13.8 21.9867 13.8 19.84C13.8 17.72 14.4667 15.9533 15.8 14.54C17.1467 13.1133 18.8867 12.4 21.02 12.4C22.7533 12.4 24.2333 12.94 25.46 14.02C26.7 15.0867 27.3733 16.42 27.48 18.02H23.24C23.12 17.38 22.86 16.8867 22.46 16.54C22.06 16.1933 21.5533 16.02 20.94 16.02C20.3 16.02 19.76 16.2267 19.32 16.64C18.8933 17.04 18.6 17.5133 18.44 18.06C18.28 18.6067 18.2 19.2 18.2 19.84C18.2 21.0267 18.44 21.96 18.92 22.64C19.4133 23.32 20.0867 23.66 20.94 23.66C22.2467 23.66 23.0133 22.9 23.24 21.38H27.54ZM29.4158 12.76H35.7758C37.9758 12.76 39.7224 13.3933 41.0158 14.66C42.3091 15.9133 42.9558 17.64 42.9558 19.84C42.9558 22.1867 42.3291 23.9667 41.0758 25.18C39.8358 26.3933 38.0424 27 35.6958 27H29.4158V12.76ZM33.6958 16.34V23.4H35.4158C36.4691 23.4 37.2624 23.0933 37.7958 22.48C38.3424 21.8667 38.6158 21.0133 38.6158 19.92C38.6158 18.7333 38.2958 17.84 37.6558 17.24C37.0291 16.64 36.1424 16.34 34.9958 16.34H33.6958ZM57.7622 12.76V27H53.5822L50.0422 20.94C49.7089 20.3667 49.3489 19.6533 48.9622 18.8C49.0555 19.6533 49.1022 20.74 49.1022 22.06L49.1222 27H44.9022V12.76H49.2222L52.3022 18.1C52.9289 19.1667 53.3955 20.06 53.7022 20.78C53.6222 19.7 53.5822 18.6067 53.5822 17.5L53.5622 12.76H57.7622ZM68.678 13.14V27H64.518V19.06H61.278V16.14H61.658C62.6713 16.14 63.5313 15.8733 64.238 15.34C64.958 14.7933 65.3313 14.06 65.358 13.14H68.678ZM73.1773 23.36H76.8573C77.084 24.2133 77.6773 24.64 78.6373 24.64C78.984 24.64 79.284 24.58 79.5373 24.46C79.7907 24.3267 79.984 24.1867 80.1173 24.04C80.264 23.8933 80.3907 23.6667 80.4973 23.36C80.604 23.04 80.6707 22.7933 80.6973 22.62C80.724 22.4467 80.764 22.1667 80.8173 21.78C80.8307 21.66 80.844 21.5667 80.8573 21.5C80.1773 22.18 79.2107 22.52 77.9573 22.52C76.4507 22.52 75.2507 22.1667 74.3573 21.46C73.464 20.74 73.0173 19.64 73.0173 18.16C73.0173 16.6 73.564 15.3533 74.6573 14.42C75.7507 13.4733 77.0973 13 78.6973 13C80.644 13 82.1307 13.64 83.1573 14.92C84.1973 16.1867 84.7173 17.8333 84.7173 19.86C84.7173 20.8733 84.5973 21.8133 84.3573 22.68C84.1173 23.5333 83.7573 24.3 83.2773 24.98C82.7973 25.66 82.1507 26.2 81.3373 26.6C80.524 26.9867 79.5907 27.18 78.5373 27.18C76.9907 27.18 75.7507 26.8533 74.8173 26.2C73.8973 25.5333 73.3507 24.5867 73.1773 23.36ZM80.1173 16.72C79.744 16.3467 79.2773 16.16 78.7173 16.16C78.1573 16.16 77.6907 16.34 77.3173 16.7C76.9573 17.0467 76.7773 17.4933 76.7773 18.04C76.7773 18.6 76.964 19.0733 77.3373 19.46C77.7107 19.8333 78.1773 20.02 78.7373 20.02C79.284 20.02 79.744 19.8333 80.1173 19.46C80.4907 19.0867 80.6773 18.6333 80.6773 18.1C80.6773 17.54 80.4907 17.08 80.1173 16.72Z" fill="white"/>
</svg>
