<svg width="118" height="40" viewBox="0 0 118 40" fill="none" xmlns="http://www.w3.org/2000/svg">
<rect width="118" height="40" fill="#2F2F3D"/>
<path d="M22.38 12.76L27.62 27H23.2L22.5 24.98H17.92L17.22 27H12.8L18.06 12.76H22.38ZM21.54 21.92L20.78 19.48C20.6067 18.9067 20.4267 18.1867 20.24 17.32C20.0267 18.1733 19.8267 18.9 19.64 19.5C19.44 20.1533 19.18 20.96 18.86 21.92H21.54ZM39.2936 23.28V27H28.5936V12.76H32.9736V23.28H39.2936ZM50.2931 12.76V16.42H46.2931V27H41.9331V16.42H37.9531V12.76H50.2931ZM72.0322 21.38C71.9122 23.2733 71.2322 24.74 69.9922 25.78C68.7655 26.82 67.2455 27.34 65.4322 27.34C63.2855 27.34 61.5589 26.6267 60.2522 25.2C58.9455 23.7733 58.2922 21.9867 58.2922 19.84C58.2922 17.72 58.9589 15.9533 60.2922 14.54C61.6389 13.1133 63.3789 12.4 65.5122 12.4C67.2455 12.4 68.7255 12.94 69.9522 14.02C71.1922 15.0867 71.8655 16.42 71.9722 18.02H67.7322C67.6122 17.38 67.3522 16.8867 66.9522 16.54C66.5522 16.1933 66.0455 16.02 65.4322 16.02C64.7922 16.02 64.2522 16.2267 63.8122 16.64C63.3855 17.04 63.0922 17.5133 62.9322 18.06C62.7722 18.6067 62.6922 19.2 62.6922 19.84C62.6922 21.0267 62.9322 21.96 63.4122 22.64C63.9055 23.32 64.5789 23.66 65.4322 23.66C66.7389 23.66 67.5055 22.9 67.7322 21.38H72.0322ZM73.908 12.76H80.268C82.468 12.76 84.2146 13.3933 85.508 14.66C86.8013 15.9133 87.448 17.64 87.448 19.84C87.448 22.1867 86.8213 23.9667 85.568 25.18C84.328 26.3933 82.5346 27 80.188 27H73.908V12.76ZM78.188 16.34V23.4H79.908C80.9613 23.4 81.7546 23.0933 82.288 22.48C82.8346 21.8667 83.108 21.0133 83.108 19.92C83.108 18.7333 82.788 17.84 82.148 17.24C81.5213 16.64 80.6346 16.34 79.488 16.34H78.188ZM102.254 12.76V27H98.0744L94.5344 20.94C94.201 20.3667 93.841 19.6533 93.4544 18.8C93.5477 19.6533 93.5944 20.74 93.5944 22.06L93.6144 27H89.3944V12.76H93.7144L96.7944 18.1C97.421 19.1667 97.8877 20.06 98.1944 20.78C98.1144 19.7 98.0744 18.6067 98.0744 17.5L98.0544 12.76H102.254Z" fill="white"/>
</svg>
