<svg width="124" height="124" viewBox="0 0 124 124" fill="none" xmlns="http://www.w3.org/2000/svg">
<ellipse cx="2" cy="9.01715" rx="2" ry="1.95276" fill="#B5B5B5"/>
<ellipse cx="2" cy="16.0815" rx="2" ry="1.95276" fill="#B5B5B5"/>
<ellipse cx="2" cy="23.1459" rx="2" ry="1.95276" fill="#B5B5B5"/>
<ellipse cx="2" cy="30.2103" rx="2" ry="1.95276" fill="#B5B5B5"/>
<ellipse cx="2" cy="37.2747" rx="2" ry="1.95275" fill="#B5B5B5"/>
<ellipse cx="2" cy="44.3391" rx="2" ry="1.95276" fill="#B5B5B5"/>
<ellipse cx="2" cy="51.4034" rx="2" ry="1.95275" fill="#B5B5B5"/>
<ellipse cx="2" cy="58.4678" rx="2" ry="1.95276" fill="#B5B5B5"/>
<ellipse cx="2" cy="65.5322" rx="2" ry="1.95275" fill="#B5B5B5"/>
<ellipse cx="2" cy="72.5966" rx="2" ry="1.95275" fill="#B5B5B5"/>
<ellipse cx="2" cy="79.6609" rx="2" ry="1.95275" fill="#B5B5B5"/>
<ellipse cx="2" cy="86.7253" rx="2" ry="1.95276" fill="#B5B5B5"/>
<ellipse cx="2" cy="93.7897" rx="2" ry="1.95275" fill="#B5B5B5"/>
<ellipse cx="2" cy="100.854" rx="2" ry="1.95275" fill="#B5B5B5"/>
<ellipse cx="2" cy="107.918" rx="2" ry="1.95275" fill="#B5B5B5"/>
<ellipse cx="2" cy="114.953" rx="2" ry="1.95275" fill="#B5B5B5"/>
<circle cx="8" cy="2" r="2" fill="#B5B5B5"/>
<circle cx="8" cy="9.5" r="2" fill="#B5B5B5"/>
<circle cx="8" cy="17" r="2" fill="#B5B5B5"/>
<circle cx="8" cy="24.5" r="2" fill="#B5B5B5"/>
<circle cx="8" cy="32" r="2" fill="#B5B5B5"/>
<circle cx="8" cy="39.5" r="2" fill="#B5B5B5"/>
<circle cx="8" cy="47" r="2" fill="#B5B5B5"/>
<circle cx="8" cy="54.5" r="2" fill="#B5B5B5"/>
<circle cx="8" cy="62" r="2" fill="#B5B5B5"/>
<circle cx="8" cy="69.5" r="2" fill="#B5B5B5"/>
<circle cx="8" cy="77" r="2" fill="#B5B5B5"/>
<circle cx="8" cy="84.5" r="2" fill="#B5B5B5"/>
<circle cx="8" cy="92" r="2" fill="#B5B5B5"/>
<circle cx="8" cy="99.5" r="2" fill="#B5B5B5"/>
<circle cx="8" cy="107" r="2" fill="#B5B5B5"/>
<circle cx="8" cy="114.5" r="2" fill="#B5B5B5"/>
<circle cx="8" cy="122" r="2" fill="#B5B5B5"/>
<circle cx="14" cy="2" r="2" fill="#B5B5B5"/>
<circle cx="14" cy="9.5" r="2" fill="#B5B5B5"/>
<circle cx="14" cy="17" r="2" fill="#B5B5B5"/>
<circle cx="14" cy="24.5" r="2" fill="#B5B5B5"/>
<circle cx="14" cy="32" r="2" fill="#B5B5B5"/>
<circle cx="14" cy="39.5" r="2" fill="#B5B5B5"/>
<circle cx="14" cy="47" r="2" fill="#B5B5B5"/>
<circle cx="14" cy="54.5" r="2" fill="#B5B5B5"/>
<circle cx="14" cy="62" r="2" fill="#B5B5B5"/>
<circle cx="14" cy="69.5" r="2" fill="#B5B5B5"/>
<circle cx="14" cy="77" r="2" fill="#B5B5B5"/>
<circle cx="14" cy="84.5" r="2" fill="#B5B5B5"/>
<circle cx="14" cy="92" r="2" fill="#B5B5B5"/>
<circle cx="14" cy="99.5" r="2" fill="#B5B5B5"/>
<circle cx="14" cy="107" r="2" fill="#B5B5B5"/>
<circle cx="14" cy="114.5" r="2" fill="#B5B5B5"/>
<circle cx="14" cy="122" r="2" fill="#B5B5B5"/>
<circle cx="20" cy="2" r="2" fill="#B5B5B5"/>
<circle cx="20" cy="8.27274" r="2" fill="#B5B5B5"/>
<circle cx="20" cy="14.5454" r="2" fill="#B5B5B5"/>
<circle cx="20" cy="20.8182" r="2" fill="#B5B5B5"/>
<circle cx="20" cy="27.0909" r="2" fill="#B5B5B5"/>
<circle cx="20" cy="33.3636" r="2" fill="#B5B5B5"/>
<circle cx="20" cy="39.6364" r="2" fill="#B5B5B5"/>
<circle cx="20" cy="45.9091" r="2" fill="#B5B5B5"/>
<circle cx="20" cy="52.1818" r="2" fill="#B5B5B5"/>
<path d="M22 58.4545C22 59.5591 21.1046 60.4545 20 60.4545C18.8954 60.4545 18 59.5591 18 58.4545C18 57.35 18.8954 56.4545 20 56.4545C21.1046 56.4545 22 57.35 22 58.4545Z" fill="#B5B5B5"/>
<path d="M22 64.7273C22 65.8318 21.1046 66.7273 20 66.7273C18.8954 66.7273 18 65.8318 18 64.7273C18 63.6227 18.8954 62.7273 20 62.7273C21.1046 62.7273 22 63.6227 22 64.7273Z" fill="#B5B5B5"/>
<path d="M22 71C22 72.1046 21.1046 73 20 73C18.8954 73 18 72.1046 18 71C18 69.8954 18.8954 69 20 69C21.1046 69 22 69.8954 22 71Z" fill="#B5B5B5"/>
<circle cx="20" cy="92" r="2" fill="#B5B5B5"/>
<circle cx="20" cy="85" r="2" fill="#B5B5B5"/>
<circle cx="20" cy="78" r="2" fill="#B5B5B5"/>
<circle cx="20" cy="99.5" r="2" fill="#B5B5B5"/>
<circle cx="20" cy="107" r="2" fill="#B5B5B5"/>
<circle cx="20" cy="114.5" r="2" fill="#B5B5B5"/>
<circle cx="20" cy="122" r="2" fill="#B5B5B5"/>
<circle cx="26" cy="2" r="2" fill="#B5B5B5"/>
<circle cx="26" cy="9.5" r="2" fill="#B5B5B5"/>
<circle cx="26" cy="17" r="2" fill="#B5B5B5"/>
<circle cx="26" cy="24.5" r="2" fill="#B5B5B5"/>
<circle cx="26" cy="32" r="2" fill="#B5B5B5"/>
<circle cx="26" cy="39.5" r="2" fill="#B5B5B5"/>
<circle cx="26" cy="47" r="2" fill="#B5B5B5"/>
<circle cx="26" cy="54.5" r="2" fill="#B5B5B5"/>
<circle cx="26" cy="62" r="2" fill="#B5B5B5"/>
<circle cx="26" cy="68" r="2" fill="#B5B5B5"/>
<circle cx="26" cy="77" r="2" fill="#B5B5B5"/>
<circle cx="26" cy="84.5" r="2" fill="#B5B5B5"/>
<circle cx="26" cy="99.5" r="2" fill="#B5B5B5"/>
<circle cx="26" cy="107" r="2" fill="#B5B5B5"/>
<circle cx="26" cy="114.5" r="2" fill="#B5B5B5"/>
<circle cx="26" cy="122" r="2" fill="#B5B5B5"/>
<circle cx="32" cy="2" r="2" fill="#B5B5B5"/>
<circle cx="32" cy="9.5" r="2" fill="#B5B5B5"/>
<circle cx="32" cy="17" r="2" fill="#B5B5B5"/>
<circle cx="32" cy="24.5" r="2" fill="#B5B5B5"/>
<circle cx="32" cy="32" r="2" fill="#B5B5B5"/>
<circle cx="32" cy="39.5" r="2" fill="#B5B5B5"/>
<circle cx="32" cy="45" r="2" fill="#B5B5B5"/>
<circle cx="32" cy="55.5" r="2" fill="#B5B5B5"/>
<circle cx="32" cy="50" r="2" fill="#B5B5B5"/>
<circle cx="32" cy="62" r="2" fill="#B5B5B5"/>
<circle cx="32" cy="69.5" r="2" fill="#B5B5B5"/>
<circle cx="32" cy="77" r="2" fill="#B5B5B5"/>
<circle cx="32" cy="92" r="2" fill="#B5B5B5"/>
<circle cx="32" cy="102.5" r="2" fill="#B5B5B5"/>
<circle cx="32" cy="109" r="2" fill="#B5B5B5"/>
<circle cx="32" cy="115.5" r="2" fill="#B5B5B5"/>
<circle cx="32" cy="122" r="2" fill="#B5B5B5"/>
<circle cx="38" cy="2" r="2" fill="#B5B5B5"/>
<circle cx="38" cy="9.5" r="2" fill="#B5B5B5"/>
<circle cx="38" cy="17" r="2" fill="#B5B5B5"/>
<circle cx="38" cy="24.5" r="2" fill="#B5B5B5"/>
<circle cx="38" cy="32" r="2" fill="#B5B5B5"/>
<circle cx="38" cy="39.5" r="2" fill="#B5B5B5"/>
<circle cx="38" cy="45" r="2" fill="#B5B5B5"/>
<circle cx="38" cy="50" r="2" fill="#B5B5B5"/>
<circle cx="38" cy="55.5" r="2" fill="#B5B5B5"/>
<circle cx="38" cy="69.5" r="2" fill="#B5B5B5"/>
<circle cx="38" cy="79" r="2" fill="#B5B5B5"/>
<circle cx="38" cy="83.5" r="2" fill="#B5B5B5"/>
<circle cx="38" cy="88" r="2" fill="#B5B5B5"/>
<circle cx="38" cy="99.5" r="2" fill="#B5B5B5"/>
<circle cx="38" cy="106" r="2" fill="#B5B5B5"/>
<circle cx="38" cy="114.5" r="2" fill="#B5B5B5"/>
<circle cx="38" cy="122" r="2" fill="#B5B5B5"/>
<circle cx="44" cy="2" r="2" fill="#B5B5B5"/>
<circle cx="44" cy="9.5" r="2" fill="#B5B5B5"/>
<circle cx="44" cy="17" r="2" fill="#B5B5B5"/>
<circle cx="44" cy="24.5" r="2" fill="#B5B5B5"/>
<circle cx="44" cy="31" r="2" fill="#B5B5B5"/>
<circle cx="44" cy="37.5" r="2" fill="#B5B5B5"/>
<circle cx="44" cy="44" r="2" fill="#B5B5B5"/>
<circle cx="44" cy="49.5" r="2" fill="#B5B5B5"/>
<circle cx="44" cy="62" r="2" fill="#B5B5B5"/>
<circle cx="44" cy="72.5" r="2" fill="#B5B5B5"/>
<circle cx="44" cy="78" r="2" fill="#B5B5B5"/>
<circle cx="44" cy="83.5" r="2" fill="#B5B5B5"/>
<circle cx="44" cy="88" r="2" fill="#B5B5B5"/>
<circle cx="44" cy="99.5" r="2" fill="#B5B5B5"/>
<circle cx="44" cy="106" r="2" fill="#B5B5B5"/>
<circle cx="44" cy="114.5" r="2" fill="#B5B5B5"/>
<circle cx="44" cy="122" r="2" fill="#B5B5B5"/>
<circle cx="50" cy="2" r="2" fill="#B5B5B5"/>
<circle cx="50" cy="9.5" r="2" fill="#B5B5B5"/>
<circle cx="50" cy="17" r="2" fill="#B5B5B5"/>
<circle cx="50" cy="24.5" r="2" fill="#B5B5B5"/>
<circle cx="50" cy="32" r="2" fill="#B5B5B5"/>
<circle cx="50" cy="39.5" r="2" fill="#B5B5B5"/>
<circle cx="50" cy="47" r="2" fill="#B5B5B5"/>
<circle cx="50" cy="54.5" r="2" fill="#B5B5B5"/>
<circle cx="49.5" cy="65.5" r="1.5" fill="#B5B5B5"/>
<circle cx="50" cy="70.5" r="2" fill="#B5B5B5"/>
<circle cx="50" cy="76" r="2" fill="#B5B5B5"/>
<circle cx="50" cy="81.5" r="2" fill="#B5B5B5"/>
<circle cx="50" cy="92" r="2" fill="#B5B5B5"/>
<circle cx="50" cy="103.5" r="2" fill="#B5B5B5"/>
<circle cx="50" cy="110" r="2" fill="#B5B5B5"/>
<circle cx="50" cy="116.5" r="2" fill="#B5B5B5"/>
<circle cx="50" cy="122" r="2" fill="#B5B5B5"/>
<circle cx="56" cy="2" r="2" fill="#B5B5B5"/>
<circle cx="56" cy="9.5" r="2" fill="#B5B5B5"/>
<circle cx="56" cy="17" r="2" fill="#B5B5B5"/>
<circle cx="56" cy="24.5" r="2" fill="#B5B5B5"/>
<circle cx="56" cy="32" r="2" fill="#B5B5B5"/>
<circle cx="56" cy="37.5" r="2" fill="#B5B5B5"/>
<circle cx="55.5" cy="45.5" r="1.5" fill="#B5B5B5"/>
<circle cx="56" cy="54.5" r="2" fill="#B5B5B5"/>
<circle cx="55.5" cy="60.5" r="1.5" fill="#B5B5B5"/>
<circle cx="56" cy="69.5" r="2" fill="#B5B5B5"/>
<circle cx="56" cy="76" r="2" fill="#B5B5B5"/>
<circle cx="56" cy="84.5" r="2" fill="#B5B5B5"/>
<circle cx="56" cy="99.5" r="2" fill="#B5B5B5"/>
<circle cx="56" cy="107" r="2" fill="#B5B5B5"/>
<circle cx="56" cy="114.5" r="2" fill="#B5B5B5"/>
<circle cx="56" cy="122" r="2" fill="#B5B5B5"/>
<circle cx="62" cy="2" r="2" fill="#B5B5B5"/>
<circle cx="62" cy="9.5" r="2" fill="#B5B5B5"/>
<circle cx="62" cy="17" r="2" fill="#B5B5B5"/>
<circle cx="62" cy="24.5" r="2" fill="#B5B5B5"/>
<circle cx="62" cy="32" r="2" fill="#B5B5B5"/>
<circle cx="62" cy="39.5" r="2" fill="#B5B5B5"/>
<circle cx="61.5" cy="46.5" r="1.5" fill="#B5B5B5"/>
<circle cx="62" cy="54.5" r="2" fill="#B5B5B5"/>
<circle cx="61.5" cy="61.5" r="1.5" fill="#B5B5B5"/>
<circle cx="62" cy="69.5" r="2" fill="#B5B5B5"/>
<circle cx="61.5" cy="77.5" r="1.5" fill="#B5B5B5"/>
<circle cx="62" cy="84.5" r="2" fill="#B5B5B5"/>
<circle cx="62" cy="93" r="2" fill="#B5B5B5"/>
<circle cx="62" cy="99.5" r="2" fill="#B5B5B5"/>
<circle cx="62" cy="107" r="2" fill="#B5B5B5"/>
<circle cx="62" cy="114.5" r="2" fill="#B5B5B5"/>
<circle cx="62" cy="122" r="2" fill="#B5B5B5"/>
<circle cx="68" cy="2" r="2" fill="#B5B5B5"/>
<circle cx="68" cy="9.5" r="2" fill="#B5B5B5"/>
<circle cx="68" cy="17" r="2" fill="#B5B5B5"/>
<circle cx="68" cy="25.5" r="2" fill="#B5B5B5"/>
<circle cx="68" cy="39.5" r="2" fill="#B5B5B5"/>
<circle cx="67.5" cy="47.5" r="1.5" fill="#B5B5B5"/>
<circle cx="68" cy="54.5" r="2" fill="#B5B5B5"/>
<circle cx="67.5" cy="63.5" r="1.5" fill="#B5B5B5"/>
<circle cx="68" cy="69.5" r="2" fill="#B5B5B5"/>
<circle cx="67.5" cy="78.5" r="1.5" fill="#B5B5B5"/>
<circle cx="68" cy="86.5" r="2" fill="#B5B5B5"/>
<circle cx="68" cy="93" r="2" fill="#B5B5B5"/>
<circle cx="68" cy="99.5" r="2" fill="#B5B5B5"/>
<circle cx="68" cy="107" r="2" fill="#B5B5B5"/>
<circle cx="68" cy="114.5" r="2" fill="#B5B5B5"/>
<circle cx="68" cy="122" r="2" fill="#B5B5B5"/>
<circle cx="74" cy="2" r="2" fill="#B5B5B5"/>
<circle cx="74" cy="9.5" r="2" fill="#B5B5B5"/>
<circle cx="74" cy="15" r="2" fill="#B5B5B5"/>
<path d="M76 20.5C76 21.6046 75.1046 22.5 74 22.5C72.8954 22.5 72 21.6046 72 20.5C72 19.3954 72.8954 18.5 74 18.5C75.1046 18.5 76 19.3954 76 20.5Z" fill="#B5B5B5"/>
<circle cx="74" cy="32" r="2" fill="#B5B5B5"/>
<circle cx="74" cy="42.5" r="2" fill="#B5B5B5"/>
<circle cx="74" cy="48" r="2" fill="#B5B5B5"/>
<circle cx="74" cy="53.5" r="2" fill="#B5B5B5"/>
<circle cx="74.5" cy="58.5" r="1.5" fill="#B5B5B5"/>
<circle cx="74" cy="69.5" r="2" fill="#B5B5B5"/>
<circle cx="74" cy="78" r="2" fill="#B5B5B5"/>
<circle cx="74" cy="84.5" r="2" fill="#B5B5B5"/>
<circle cx="74" cy="92" r="2" fill="#B5B5B5"/>
<circle cx="74" cy="99.5" r="2" fill="#B5B5B5"/>
<circle cx="74" cy="107" r="2" fill="#B5B5B5"/>
<circle cx="74" cy="114.5" r="2" fill="#B5B5B5"/>
<circle cx="74" cy="122" r="2" fill="#B5B5B5"/>
<circle cx="80" cy="2" r="2" fill="#B5B5B5"/>
<circle cx="80" cy="8.5" r="2" fill="#B5B5B5"/>
<circle cx="80" cy="14" r="2" fill="#B5B5B5"/>
<circle cx="80" cy="19" r="2" fill="#B5B5B5"/>
<circle cx="80" cy="24.5" r="2" fill="#B5B5B5"/>
<circle cx="80" cy="37" r="2" fill="#B5B5B5"/>
<circle cx="80" cy="42.5" r="2" fill="#B5B5B5"/>
<circle cx="80" cy="47" r="2" fill="#B5B5B5"/>
<circle cx="80" cy="51.5" r="2" fill="#B5B5B5"/>
<circle cx="80" cy="62" r="2" fill="#B5B5B5"/>
<circle cx="80" cy="74.5" r="2" fill="#B5B5B5"/>
<circle cx="80" cy="81" r="2" fill="#B5B5B5"/>
<circle cx="80" cy="87.5" r="2" fill="#B5B5B5"/>
<circle cx="80" cy="95" r="2" fill="#B5B5B5"/>
<circle cx="80" cy="101.5" r="2" fill="#B5B5B5"/>
<circle cx="80" cy="107" r="2" fill="#B5B5B5"/>
<circle cx="80" cy="114.5" r="2" fill="#B5B5B5"/>
<circle cx="80" cy="122" r="2" fill="#B5B5B5"/>
<circle cx="86" cy="2" r="2" fill="#B5B5B5"/>
<circle cx="86" cy="8" r="2" fill="#B5B5B5"/>
<circle cx="86" cy="14" r="2" fill="#B5B5B5"/>
<circle cx="86" cy="19" r="2" fill="#B5B5B5"/>
<circle cx="86" cy="24.5" r="2" fill="#B5B5B5"/>
<circle cx="86" cy="37" r="2" fill="#B5B5B5"/>
<circle cx="86" cy="41.5" r="2" fill="#B5B5B5"/>
<circle cx="86" cy="46" r="2" fill="#B5B5B5"/>
<circle cx="86" cy="54.5" r="2" fill="#B5B5B5"/>
<circle cx="86" cy="69.5" r="2" fill="#B5B5B5"/>
<circle cx="86" cy="77" r="2" fill="#B5B5B5"/>
<circle cx="86" cy="84.5" r="2" fill="#B5B5B5"/>
<circle cx="86" cy="92" r="2" fill="#B5B5B5"/>
<circle cx="86" cy="99.5" r="2" fill="#B5B5B5"/>
<circle cx="86" cy="107" r="2" fill="#B5B5B5"/>
<circle cx="86" cy="114.5" r="2" fill="#B5B5B5"/>
<circle cx="86" cy="122" r="2" fill="#B5B5B5"/>
<circle cx="92" cy="2" r="2" fill="#B5B5B5"/>
<circle cx="92" cy="9.5" r="2" fill="#B5B5B5"/>
<circle cx="92" cy="15" r="2" fill="#B5B5B5"/>
<circle cx="92" cy="20.5" r="2" fill="#B5B5B5"/>
<circle cx="92" cy="32" r="2" fill="#B5B5B5"/>
<circle cx="92" cy="47" r="2" fill="#B5B5B5"/>
<circle cx="92" cy="54.5" r="2" fill="#B5B5B5"/>
<circle cx="92" cy="64" r="2" fill="#B5B5B5"/>
<circle cx="92" cy="69.5" r="2" fill="#B5B5B5"/>
<circle cx="92" cy="77" r="2" fill="#B5B5B5"/>
<circle cx="92" cy="84.5" r="2" fill="#B5B5B5"/>
<circle cx="92" cy="92" r="2" fill="#B5B5B5"/>
<circle cx="92" cy="99.5" r="2" fill="#B5B5B5"/>
<circle cx="92" cy="107" r="2" fill="#B5B5B5"/>
<circle cx="92" cy="114.5" r="2" fill="#B5B5B5"/>
<circle cx="92" cy="122" r="2" fill="#B5B5B5"/>
<circle cx="98" cy="2" r="2" fill="#B5B5B5"/>
<circle cx="98" cy="9.5" r="2" fill="#B5B5B5"/>
<circle cx="98" cy="17" r="2" fill="#B5B5B5"/>
<circle cx="98" cy="24.5" r="2" fill="#B5B5B5"/>
<circle cx="98" cy="39.5" r="2" fill="#B5B5B5"/>
<circle cx="98" cy="47" r="2" fill="#B5B5B5"/>
<circle cx="98" cy="57.5" r="2" fill="#B5B5B5"/>
<circle cx="98" cy="64" r="2" fill="#B5B5B5"/>
<circle cx="98" cy="70.5" r="2" fill="#B5B5B5"/>
<circle cx="98" cy="77" r="2" fill="#B5B5B5"/>
<circle cx="98" cy="84.5" r="2" fill="#B5B5B5"/>
<circle cx="98" cy="92" r="2" fill="#B5B5B5"/>
<circle cx="98" cy="99.5" r="2" fill="#B5B5B5"/>
<circle cx="98" cy="107" r="2" fill="#B5B5B5"/>
<circle cx="98" cy="114.5" r="2" fill="#B5B5B5"/>
<circle cx="98" cy="122" r="2" fill="#B5B5B5"/>
<circle cx="104" cy="2" r="2" fill="#B5B5B5"/>
<circle cx="104" cy="9.5" r="2" fill="#B5B5B5"/>
<circle cx="104" cy="17" r="2" fill="#B5B5B5"/>
<circle cx="104" cy="24.5" r="2" fill="#B5B5B5"/>
<circle cx="104" cy="32" r="2" fill="#B5B5B5"/>
<circle cx="104" cy="39.5" r="2" fill="#B5B5B5"/>
<circle cx="104" cy="47" r="2" fill="#B5B5B5"/>
<circle cx="104" cy="53.5" r="2" fill="#B5B5B5"/>
<circle cx="104" cy="62" r="2" fill="#B5B5B5"/>
<circle cx="104" cy="69.5" r="2" fill="#B5B5B5"/>
<circle cx="104" cy="77" r="2" fill="#B5B5B5"/>
<circle cx="104" cy="84.5" r="2" fill="#B5B5B5"/>
<circle cx="104" cy="92" r="2" fill="#B5B5B5"/>
<circle cx="104" cy="99.5" r="2" fill="#B5B5B5"/>
<circle cx="104" cy="107" r="2" fill="#B5B5B5"/>
<circle cx="104" cy="114.5" r="2" fill="#B5B5B5"/>
<circle cx="104" cy="122" r="2" fill="#B5B5B5"/>
<circle cx="110" cy="2" r="2" fill="#B5B5B5"/>
<circle cx="110" cy="9.5" r="2" fill="#B5B5B5"/>
<circle cx="110" cy="17" r="2" fill="#B5B5B5"/>
<circle cx="110" cy="24.5" r="2" fill="#B5B5B5"/>
<circle cx="110" cy="32" r="2" fill="#B5B5B5"/>
<circle cx="110" cy="39.5" r="2" fill="#B5B5B5"/>
<circle cx="110" cy="47" r="2" fill="#B5B5B5"/>
<circle cx="110" cy="54.5" r="2" fill="#B5B5B5"/>
<circle cx="110" cy="62" r="2" fill="#B5B5B5"/>
<circle cx="110" cy="69.5" r="2" fill="#B5B5B5"/>
<circle cx="110" cy="77" r="2" fill="#B5B5B5"/>
<circle cx="110" cy="84.5" r="2" fill="#B5B5B5"/>
<circle cx="110" cy="92" r="2" fill="#B5B5B5"/>
<circle cx="110" cy="99.5" r="2" fill="#B5B5B5"/>
<circle cx="110" cy="107" r="2" fill="#B5B5B5"/>
<circle cx="110" cy="114.5" r="2" fill="#B5B5B5"/>
<circle cx="110" cy="122" r="2" fill="#B5B5B5"/>
<circle cx="116" cy="2" r="2" fill="#B5B5B5"/>
<circle cx="116" cy="9.5" r="2" fill="#B5B5B5"/>
<circle cx="116" cy="17" r="2" fill="#B5B5B5"/>
<circle cx="116" cy="24.5" r="2" fill="#B5B5B5"/>
<circle cx="116" cy="32" r="2" fill="#B5B5B5"/>
<circle cx="116" cy="39.5" r="2" fill="#B5B5B5"/>
<circle cx="116" cy="47" r="2" fill="#B5B5B5"/>
<circle cx="116" cy="54.5" r="2" fill="#B5B5B5"/>
<circle cx="116" cy="62" r="2" fill="#B5B5B5"/>
<circle cx="116" cy="69.5" r="2" fill="#B5B5B5"/>
<circle cx="116" cy="77" r="2" fill="#B5B5B5"/>
<circle cx="116" cy="84.5" r="2" fill="#B5B5B5"/>
<circle cx="116" cy="92" r="2" fill="#B5B5B5"/>
<circle cx="116" cy="99.5" r="2" fill="#B5B5B5"/>
<circle cx="116" cy="107" r="2" fill="#B5B5B5"/>
<circle cx="116" cy="114.5" r="2" fill="#B5B5B5"/>
<circle cx="116" cy="122" r="2" fill="#B5B5B5"/>
<ellipse cx="122" cy="9.01715" rx="2" ry="1.95276" fill="#B5B5B5"/>
<ellipse cx="122" cy="16.0815" rx="2" ry="1.95276" fill="#B5B5B5"/>
<ellipse cx="122" cy="23.1459" rx="2" ry="1.95276" fill="#B5B5B5"/>
<ellipse cx="122" cy="30.2103" rx="2" ry="1.95276" fill="#B5B5B5"/>
<ellipse cx="122" cy="37.2747" rx="2" ry="1.95275" fill="#B5B5B5"/>
<ellipse cx="122" cy="44.3391" rx="2" ry="1.95276" fill="#B5B5B5"/>
<ellipse cx="122" cy="51.4034" rx="2" ry="1.95275" fill="#B5B5B5"/>
<ellipse cx="122" cy="58.4678" rx="2" ry="1.95276" fill="#B5B5B5"/>
<ellipse cx="122" cy="65.5322" rx="2" ry="1.95275" fill="#B5B5B5"/>
<ellipse cx="122" cy="72.5966" rx="2" ry="1.95275" fill="#B5B5B5"/>
<ellipse cx="122" cy="79.6609" rx="2" ry="1.95275" fill="#B5B5B5"/>
<ellipse cx="122" cy="86.7253" rx="2" ry="1.95276" fill="#B5B5B5"/>
<ellipse cx="122" cy="93.7897" rx="2" ry="1.95275" fill="#B5B5B5"/>
<ellipse cx="122" cy="100.854" rx="2" ry="1.95275" fill="#B5B5B5"/>
<ellipse cx="122" cy="107.918" rx="2" ry="1.95275" fill="#B5B5B5"/>
<ellipse cx="122" cy="114.953" rx="2" ry="1.95275" fill="#B5B5B5"/>
<path d="M70.812 53.1821C69.8644 52.2288 68.8136 51.3838 67.6793 50.6625C64.6748 48.7386 61.182 47.7163 57.6144 47.7163C52.6626 47.7071 47.9121 49.6746 44.4168 53.1821L27.4598 70.1523C23.9704 73.6484 22.0092 78.3852 22.0061 83.3246C21.9995 93.6321 30.3499 101.993 40.6574 102C45.6016 102.017 50.3477 100.059 53.8418 96.5608L67.8393 82.5633C68.0936 82.3112 68.2356 81.9672 68.2336 81.6091C68.2294 80.8729 67.629 80.2795 66.8927 80.2837H66.3595C63.4351 80.2941 60.5367 79.7324 57.8278 78.6308C57.3287 78.4253 56.755 78.5412 56.3748 78.924L46.3099 89.0022C43.1845 92.1275 38.1173 92.1275 34.9919 89.0022C31.8665 85.8768 31.8665 80.8096 34.9919 77.6842L52.0156 60.674C55.1384 57.555 60.1974 57.555 63.3202 60.674C65.4249 62.6547 68.7077 62.6547 70.8122 60.674C71.7176 59.7677 72.2666 58.5658 72.3586 57.2879C72.4559 55.7608 71.8928 54.2653 70.812 53.1821Z" fill="#F1F1F1"/>
<path d="M96.5273 27.4667C89.2385 20.1778 77.4209 20.1778 70.1321 27.4667L56.1479 41.4375C55.7639 41.8233 55.6531 42.4037 55.8679 42.9039C56.0802 43.4055 56.5764 43.7275 57.121 43.717H57.6142C60.5352 43.7117 63.4289 44.2777 66.1326 45.3835C66.6318 45.5889 67.2054 45.473 67.5857 45.0902L77.6239 35.0653C80.7492 31.9399 85.8165 31.9399 88.9418 35.0653C92.0672 38.1907 92.0672 43.2579 88.9418 46.3833L76.4374 58.8743L76.3307 58.9943L71.9582 63.3402C68.8353 66.4592 63.7763 66.4592 60.6535 63.3402C58.5488 61.3595 55.266 61.3595 53.1615 63.3402C52.2503 64.2534 51.7009 65.4658 51.6151 66.7529C51.5176 68.28 52.0808 69.7755 53.1615 70.8589C54.7045 72.4085 56.5098 73.6721 58.4939 74.5915C58.7738 74.7248 59.0538 74.8315 59.3337 74.9514C59.6137 75.0714 59.9069 75.1647 60.1868 75.2714C60.4668 75.3781 60.76 75.4713 61.04 75.5513L61.8265 75.7646C62.3597 75.8978 62.8931 76.0045 63.4395 76.0978C64.0978 76.1956 64.7609 76.2579 65.4259 76.2845H66.359H66.439L67.2388 76.1912C67.5321 76.1779 67.8387 76.1112 68.1854 76.1112H68.6386L69.5584 75.978L69.9851 75.898L70.7582 75.738H70.9049C74.1795 74.9155 77.1696 73.22 79.5566 70.8322L96.5269 53.8619C103.816 46.5731 103.816 34.7555 96.5273 27.4667Z" fill="#F1F1F1"/>
</svg>
