<svg width="124" height="99" viewBox="0 0 124 99" fill="none" xmlns="http://www.w3.org/2000/svg">
<g clip-path="url(#clip0_348_1305)">
<circle cx="2" cy="8" r="2" fill="#B5B5B5"/>
<circle cx="2" cy="17.4445" r="2" fill="#B5B5B5"/>
<circle cx="2" cy="26.8889" r="2" fill="#B5B5B5"/>
<circle cx="2" cy="36.3333" r="2" fill="#B5B5B5"/>
<circle cx="2" cy="45.7778" r="2" fill="#B5B5B5"/>
<circle cx="2" cy="55.2222" r="2" fill="#B5B5B5"/>
<circle cx="2" cy="64.6667" r="2" fill="#B5B5B5"/>
<circle cx="2" cy="74.1111" r="2" fill="#B5B5B5"/>
<circle cx="2" cy="83.5555" r="2" fill="#B5B5B5"/>
<circle cx="2" cy="93" r="2" fill="#B5B5B5"/>
<circle cx="121" cy="8" r="2" fill="#B5B5B5"/>
<circle cx="121" cy="17.4445" r="2" fill="#B5B5B5"/>
<circle cx="121" cy="26.8889" r="2" fill="#B5B5B5"/>
<circle cx="121" cy="36.3333" r="2" fill="#B5B5B5"/>
<circle cx="121" cy="45.7778" r="2" fill="#B5B5B5"/>
<circle cx="121" cy="55.2222" r="2" fill="#B5B5B5"/>
<circle cx="121" cy="64.6667" r="2" fill="#B5B5B5"/>
<circle cx="121" cy="74.1111" r="2" fill="#B5B5B5"/>
<circle cx="121" cy="83.5555" r="2" fill="#B5B5B5"/>
<circle cx="121" cy="93" r="2" fill="#B5B5B5"/>
<circle cx="9" cy="3" r="2" fill="#B5B5B5"/>
<circle cx="9" cy="11.5454" r="2" fill="#B5B5B5"/>
<circle cx="9" cy="20.0909" r="2" fill="#B5B5B5"/>
<circle cx="9" cy="28.6364" r="2" fill="#B5B5B5"/>
<circle cx="9" cy="37.1818" r="2" fill="#B5B5B5"/>
<circle cx="9" cy="45.7273" r="2" fill="#B5B5B5"/>
<circle cx="9" cy="54.2727" r="2" fill="#B5B5B5"/>
<circle cx="9" cy="62.8182" r="2" fill="#B5B5B5"/>
<circle cx="9" cy="71.3636" r="2" fill="#B5B5B5"/>
<circle cx="9" cy="79.9091" r="2" fill="#B5B5B5"/>
<circle cx="9" cy="88.4546" r="2" fill="#B5B5B5"/>
<circle cx="9" cy="97" r="2" fill="#B5B5B5"/>
<circle cx="51.5" cy="3.5" r="2.5" fill="#B5B5B5"/>
<circle cx="51.5" cy="11.9546" r="2.5" fill="#B5B5B5"/>
<circle cx="51.5" cy="20.4091" r="2.5" fill="#B5B5B5"/>
<circle cx="51.5" cy="28.8636" r="2.5" fill="#B5B5B5"/>
<circle cx="51.5" cy="37.3182" r="2.5" fill="#B5B5B5"/>
<circle cx="51.5" cy="45.7727" r="2.5" fill="#B5B5B5"/>
<circle cx="51.5" cy="54.2273" r="2.5" fill="#B5B5B5"/>
<circle cx="51.5" cy="62.6818" r="2.5" fill="#B5B5B5"/>
<circle cx="51.5" cy="71.1364" r="2.5" fill="#B5B5B5"/>
<circle cx="51.5" cy="79.5909" r="2.5" fill="#B5B5B5"/>
<circle cx="51.5" cy="88.0454" r="2.5" fill="#B5B5B5"/>
<circle cx="51.5" cy="96.5" r="2.5" fill="#B5B5B5"/>
<circle cx="93.5" cy="3.5" r="2.5" fill="#B5B5B5"/>
<circle cx="93.5" cy="11.9546" r="2.5" fill="#B5B5B5"/>
<circle cx="93.5" cy="20.4091" r="2.5" fill="#B5B5B5"/>
<circle cx="93.5" cy="28.8636" r="2.5" fill="#B5B5B5"/>
<circle cx="93.5" cy="37.3182" r="2.5" fill="#B5B5B5"/>
<circle cx="93.5" cy="45.7727" r="2.5" fill="#B5B5B5"/>
<circle cx="93.5" cy="54.2273" r="2.5" fill="#B5B5B5"/>
<circle cx="93.5" cy="62.6818" r="2.5" fill="#B5B5B5"/>
<circle cx="93.5" cy="71.1364" r="2.5" fill="#B5B5B5"/>
<circle cx="93.5" cy="79.5909" r="2.5" fill="#B5B5B5"/>
<circle cx="93.5" cy="88.0454" r="2.5" fill="#B5B5B5"/>
<circle cx="93.5" cy="96.5" r="2.5" fill="#B5B5B5"/>
<circle cx="16.5" cy="3.5" r="2.5" fill="#B5B5B5"/>
<circle cx="16.5" cy="11.9546" r="2.5" fill="#B5B5B5"/>
<circle cx="16.5" cy="20.4091" r="2.5" fill="#B5B5B5"/>
<circle cx="16.5" cy="28.8636" r="2.5" fill="#B5B5B5"/>
<circle cx="16.5" cy="37.3182" r="2.5" fill="#B5B5B5"/>
<circle cx="16.5" cy="45.7727" r="2.5" fill="#B5B5B5"/>
<circle cx="16.5" cy="54.2273" r="2.5" fill="#B5B5B5"/>
<circle cx="16.5" cy="62.6818" r="2.5" fill="#B5B5B5"/>
<circle cx="16.5" cy="71.1364" r="2.5" fill="#B5B5B5"/>
<circle cx="16.5" cy="79.5909" r="2.5" fill="#B5B5B5"/>
<circle cx="16.5" cy="88.0454" r="2.5" fill="#B5B5B5"/>
<circle cx="16.5" cy="96.5" r="2.5" fill="#B5B5B5"/>
<circle cx="58.5" cy="3.4873" r="2.5" fill="#B5B5B5"/>
<circle cx="58.5" cy="10.7373" r="2.5" fill="#B5B5B5"/>
<circle cx="58.5" cy="17.9873" r="2.5" fill="#B5B5B5"/>
<circle cx="58.5" cy="25.2373" r="2.5" fill="#B5B5B5"/>
<circle cx="58.5" cy="32.4873" r="2.5" fill="#B5B5B5"/>
<circle cx="58.5" cy="68.4873" r="2.5" fill="#B5B5B5"/>
<circle cx="58.5" cy="75.4873" r="2.5" fill="#B5B5B5"/>
<circle cx="58.5" cy="82.4873" r="2.5" fill="#B5B5B5"/>
<circle cx="58.5" cy="89.4873" r="2.5" fill="#B5B5B5"/>
<circle cx="58.5" cy="96.4873" r="2.5" fill="#B5B5B5"/>
<circle cx="100" cy="3" r="2" fill="#B5B5B5"/>
<circle cx="100" cy="11.5454" r="2" fill="#B5B5B5"/>
<circle cx="100" cy="20.0909" r="2" fill="#B5B5B5"/>
<circle cx="100" cy="28.6364" r="2" fill="#B5B5B5"/>
<circle cx="100" cy="37.1818" r="2" fill="#B5B5B5"/>
<circle cx="100" cy="45.7273" r="2" fill="#B5B5B5"/>
<circle cx="100" cy="54.2727" r="2" fill="#B5B5B5"/>
<circle cx="100" cy="62.8182" r="2" fill="#B5B5B5"/>
<circle cx="100" cy="71.3636" r="2" fill="#B5B5B5"/>
<circle cx="100" cy="79.9091" r="2" fill="#B5B5B5"/>
<circle cx="100" cy="88.4546" r="2" fill="#B5B5B5"/>
<circle cx="100" cy="97" r="2" fill="#B5B5B5"/>
<circle cx="23.5" cy="3.5" r="2.5" fill="#B5B5B5"/>
<circle cx="23.5" cy="11.9546" r="2.5" fill="#B5B5B5"/>
<circle cx="23.5" cy="20.4091" r="2.5" fill="#B5B5B5"/>
<circle cx="23.5" cy="28.8636" r="2.5" fill="#B5B5B5"/>
<circle cx="23.5" cy="37.3182" r="2.5" fill="#B5B5B5"/>
<circle cx="23.5" cy="45.7727" r="2.5" fill="#B5B5B5"/>
<circle cx="23.5" cy="54.2273" r="2.5" fill="#B5B5B5"/>
<circle cx="23.5" cy="62.6818" r="2.5" fill="#B5B5B5"/>
<circle cx="23.5" cy="71.1364" r="2.5" fill="#B5B5B5"/>
<circle cx="23.5" cy="79.5909" r="2.5" fill="#B5B5B5"/>
<circle cx="23.5" cy="88.0454" r="2.5" fill="#B5B5B5"/>
<circle cx="23.5" cy="96.5" r="2.5" fill="#B5B5B5"/>
<circle cx="65.5" cy="3.5" r="2.5" fill="#B5B5B5"/>
<circle cx="65.5" cy="11.25" r="2.5" fill="#B5B5B5"/>
<circle cx="65.5" cy="19" r="2.5" fill="#B5B5B5"/>
<circle cx="65.5" cy="26.75" r="2.5" fill="#B5B5B5"/>
<circle cx="65.5" cy="34.5" r="2.5" fill="#B5B5B5"/>
<circle cx="65.5" cy="42.25" r="2.5" fill="#B5B5B5"/>
<circle cx="65.5" cy="50" r="2.5" fill="#B5B5B5"/>
<circle cx="65.5" cy="57.75" r="2.5" fill="#B5B5B5"/>
<circle cx="65.5" cy="65.5" r="2.5" fill="#B5B5B5"/>
<circle cx="65.5" cy="73.25" r="2.5" fill="#B5B5B5"/>
<circle cx="65.5" cy="81" r="2.5" fill="#B5B5B5"/>
<circle cx="65.5" cy="88.75" r="2.5" fill="#B5B5B5"/>
<circle cx="65.5" cy="96.5" r="2.5" fill="#B5B5B5"/>
<circle cx="107" cy="3" r="2" fill="#B5B5B5"/>
<circle cx="107" cy="11.5454" r="2" fill="#B5B5B5"/>
<circle cx="107" cy="20.0909" r="2" fill="#B5B5B5"/>
<circle cx="107" cy="28.6364" r="2" fill="#B5B5B5"/>
<circle cx="107" cy="37.1818" r="2" fill="#B5B5B5"/>
<circle cx="107" cy="45.7273" r="2" fill="#B5B5B5"/>
<circle cx="107" cy="54.2727" r="2" fill="#B5B5B5"/>
<circle cx="107" cy="62.8182" r="2" fill="#B5B5B5"/>
<circle cx="107" cy="71.3636" r="2" fill="#B5B5B5"/>
<circle cx="107" cy="79.9091" r="2" fill="#B5B5B5"/>
<circle cx="107" cy="88.4546" r="2" fill="#B5B5B5"/>
<circle cx="107" cy="97" r="2" fill="#B5B5B5"/>
<circle cx="30.5" cy="3.5" r="2.5" fill="#B5B5B5"/>
<circle cx="30.5" cy="11.9546" r="2.5" fill="#B5B5B5"/>
<circle cx="30.5" cy="20.4091" r="2.5" fill="#B5B5B5"/>
<circle cx="30.5" cy="28.8636" r="2.5" fill="#B5B5B5"/>
<circle cx="30.5" cy="37.3182" r="2.5" fill="#B5B5B5"/>
<circle cx="30.5" cy="45.7727" r="2.5" fill="#B5B5B5"/>
<circle cx="30.5" cy="54.2273" r="2.5" fill="#B5B5B5"/>
<circle cx="30.5" cy="62.6818" r="2.5" fill="#B5B5B5"/>
<circle cx="30.5" cy="71.1364" r="2.5" fill="#B5B5B5"/>
<circle cx="30.5" cy="79.5909" r="2.5" fill="#B5B5B5"/>
<circle cx="30.5" cy="88.0454" r="2.5" fill="#B5B5B5"/>
<circle cx="30.5" cy="96.5" r="2.5" fill="#B5B5B5"/>
<circle cx="72.5" cy="3.5" r="2.5" fill="#B5B5B5"/>
<circle cx="72.5" cy="10.6538" r="2.5" fill="#B5B5B5"/>
<circle cx="72.5" cy="17.8077" r="2.5" fill="#B5B5B5"/>
<circle cx="72.5" cy="24.9615" r="2.5" fill="#B5B5B5"/>
<circle cx="72.5" cy="32.1154" r="2.5" fill="#B5B5B5"/>
<circle cx="72.5" cy="39.2692" r="2.5" fill="#B5B5B5"/>
<circle cx="72.5" cy="46.4231" r="2.5" fill="#B5B5B5"/>
<circle cx="72.5" cy="53.5769" r="2.5" fill="#B5B5B5"/>
<circle cx="72.5" cy="60.7308" r="2.5" fill="#B5B5B5"/>
<circle cx="72.5" cy="67.8846" r="2.5" fill="#B5B5B5"/>
<circle cx="72.5" cy="75.0385" r="2.5" fill="#B5B5B5"/>
<circle cx="72.5" cy="82.1923" r="2.5" fill="#B5B5B5"/>
<circle cx="72.5" cy="89.3462" r="2.5" fill="#B5B5B5"/>
<circle cx="72.5" cy="96.5" r="2.5" fill="#B5B5B5"/>
<circle cx="114" cy="3" r="2" fill="#B5B5B5"/>
<circle cx="114" cy="11.5454" r="2" fill="#B5B5B5"/>
<circle cx="114" cy="20.0909" r="2" fill="#B5B5B5"/>
<circle cx="114" cy="28.6364" r="2" fill="#B5B5B5"/>
<circle cx="114" cy="37.1818" r="2" fill="#B5B5B5"/>
<circle cx="114" cy="45.7273" r="2" fill="#B5B5B5"/>
<circle cx="114" cy="54.2727" r="2" fill="#B5B5B5"/>
<circle cx="114" cy="62.8182" r="2" fill="#B5B5B5"/>
<circle cx="114" cy="71.3636" r="2" fill="#B5B5B5"/>
<circle cx="114" cy="79.9091" r="2" fill="#B5B5B5"/>
<circle cx="114" cy="88.4546" r="2" fill="#B5B5B5"/>
<circle cx="114" cy="97" r="2" fill="#B5B5B5"/>
<circle cx="37.5" cy="3.5" r="2.5" fill="#B5B5B5"/>
<circle cx="37.5" cy="11.9546" r="2.5" fill="#B5B5B5"/>
<circle cx="37.5" cy="20.4091" r="2.5" fill="#B5B5B5"/>
<circle cx="37.5" cy="28.8636" r="2.5" fill="#B5B5B5"/>
<circle cx="37.5" cy="37.3182" r="2.5" fill="#B5B5B5"/>
<circle cx="37.5" cy="45.7727" r="2.5" fill="#B5B5B5"/>
<circle cx="37.5" cy="54.2273" r="2.5" fill="#B5B5B5"/>
<circle cx="37.5" cy="62.6818" r="2.5" fill="#B5B5B5"/>
<circle cx="37.5" cy="71.1364" r="2.5" fill="#B5B5B5"/>
<circle cx="37.5" cy="79.5909" r="2.5" fill="#B5B5B5"/>
<circle cx="37.5" cy="88.0454" r="2.5" fill="#B5B5B5"/>
<circle cx="37.5" cy="96.5" r="2.5" fill="#B5B5B5"/>
<circle cx="79.5" cy="3.5" r="2.5" fill="#B5B5B5"/>
<circle cx="79.5" cy="11.25" r="2.5" fill="#B5B5B5"/>
<circle cx="79.5" cy="19" r="2.5" fill="#B5B5B5"/>
<circle cx="79.5" cy="26.75" r="2.5" fill="#B5B5B5"/>
<circle cx="79.5" cy="34.5" r="2.5" fill="#B5B5B5"/>
<circle cx="79.5" cy="42.25" r="2.5" fill="#B5B5B5"/>
<circle cx="79.5" cy="50" r="2.5" fill="#B5B5B5"/>
<circle cx="79.5" cy="57.75" r="2.5" fill="#B5B5B5"/>
<circle cx="79.5" cy="65.5" r="2.5" fill="#B5B5B5"/>
<circle cx="79.5" cy="73.25" r="2.5" fill="#B5B5B5"/>
<circle cx="79.5" cy="81" r="2.5" fill="#B5B5B5"/>
<circle cx="79.5" cy="88.75" r="2.5" fill="#B5B5B5"/>
<circle cx="79.5" cy="96.5" r="2.5" fill="#B5B5B5"/>
<circle cx="44.5" cy="3.5" r="2.5" fill="#B5B5B5"/>
<circle cx="44.5" cy="11.9546" r="2.5" fill="#B5B5B5"/>
<circle cx="44.5" cy="20.4091" r="2.5" fill="#B5B5B5"/>
<circle cx="44.5" cy="28.8636" r="2.5" fill="#B5B5B5"/>
<circle cx="44.5" cy="37.3182" r="2.5" fill="#B5B5B5"/>
<circle cx="44.5" cy="45.7727" r="2.5" fill="#B5B5B5"/>
<circle cx="44.5" cy="54.2273" r="2.5" fill="#B5B5B5"/>
<circle cx="44.5" cy="62.6818" r="2.5" fill="#B5B5B5"/>
<circle cx="44.5" cy="71.1364" r="2.5" fill="#B5B5B5"/>
<circle cx="44.5" cy="79.5909" r="2.5" fill="#B5B5B5"/>
<circle cx="44.5" cy="88.0454" r="2.5" fill="#B5B5B5"/>
<circle cx="44.5" cy="96.5" r="2.5" fill="#B5B5B5"/>
<circle cx="86.5" cy="3.5" r="2.5" fill="#B5B5B5"/>
<circle cx="86.5" cy="11.9546" r="2.5" fill="#B5B5B5"/>
<circle cx="86.5" cy="20.4091" r="2.5" fill="#B5B5B5"/>
<circle cx="86.5" cy="28.8636" r="2.5" fill="#B5B5B5"/>
<circle cx="86.5" cy="37.3182" r="2.5" fill="#B5B5B5"/>
<circle cx="86.5" cy="45.7727" r="2.5" fill="#B5B5B5"/>
<circle cx="86.5" cy="54.2273" r="2.5" fill="#B5B5B5"/>
<circle cx="86.5" cy="62.6818" r="2.5" fill="#B5B5B5"/>
<circle cx="86.5" cy="71.1364" r="2.5" fill="#B5B5B5"/>
<circle cx="86.5" cy="79.5909" r="2.5" fill="#B5B5B5"/>
<circle cx="86.5" cy="88.0454" r="2.5" fill="#B5B5B5"/>
<circle cx="86.5" cy="96.5" r="2.5" fill="#B5B5B5"/>
<path d="M82.2309 53.2037L54.3941 67.5647C52.0317 68.7822 49 67.308 49 64.8535V36.1316C49 33.681 52.0274 32.2029 54.3941 33.4243L82.2309 47.7853C82.7683 48.058 83.215 48.4523 83.5257 48.9281C83.8363 49.4039 84 49.9443 84 50.4945C84 51.0447 83.8363 51.5851 83.5257 52.0609C83.215 52.5367 82.7683 52.9309 82.2309 53.2037Z" fill="#F1F1F1"/>
</g>
<defs>
<clipPath id="clip0_348_1305">
<rect width="124" height="99" rx="10" fill="white"/>
</clipPath>
</defs>
</svg>
