<svg width="124" height="100" viewBox="0 0 124 100" fill="none" xmlns="http://www.w3.org/2000/svg">
<g clip-path="url(#clip0_348_1305)">
<circle cx="2" cy="8.0127" r="2" fill="#B5B5B5"/>
<circle cx="2" cy="17.4572" r="2" fill="#B5B5B5"/>
<circle cx="2" cy="26.9016" r="2" fill="#B5B5B5"/>
<circle cx="2" cy="36.346" r="2" fill="#B5B5B5"/>
<circle cx="2" cy="45.7905" r="2" fill="#B5B5B5"/>
<circle cx="2" cy="55.2349" r="2" fill="#B5B5B5"/>
<circle cx="2" cy="64.6794" r="2" fill="#B5B5B5"/>
<circle cx="2" cy="74.1238" r="2" fill="#B5B5B5"/>
<circle cx="2" cy="83.5682" r="2" fill="#B5B5B5"/>
<circle cx="2" cy="93.0127" r="2" fill="#B5B5B5"/>
<circle cx="121" cy="8.0127" r="2" fill="#B5B5B5"/>
<circle cx="121" cy="17.4572" r="2" fill="#B5B5B5"/>
<circle cx="121" cy="26.9016" r="2" fill="#B5B5B5"/>
<circle cx="121" cy="36.346" r="2" fill="#B5B5B5"/>
<circle cx="121" cy="45.7905" r="2" fill="#B5B5B5"/>
<circle cx="121" cy="55.2349" r="2" fill="#B5B5B5"/>
<circle cx="121" cy="64.6794" r="2" fill="#B5B5B5"/>
<circle cx="121" cy="74.1238" r="2" fill="#B5B5B5"/>
<circle cx="121" cy="83.5682" r="2" fill="#B5B5B5"/>
<circle cx="121" cy="93.0127" r="2" fill="#B5B5B5"/>
<circle cx="9" cy="3.0127" r="2" fill="#B5B5B5"/>
<circle cx="9" cy="11.5581" r="2" fill="#B5B5B5"/>
<circle cx="9" cy="20.1036" r="2" fill="#B5B5B5"/>
<circle cx="9" cy="28.649" r="2" fill="#B5B5B5"/>
<circle cx="9" cy="37.1945" r="2" fill="#B5B5B5"/>
<circle cx="9" cy="45.74" r="2" fill="#B5B5B5"/>
<circle cx="9" cy="54.2854" r="2" fill="#B5B5B5"/>
<circle cx="9" cy="62.8309" r="2" fill="#B5B5B5"/>
<circle cx="9" cy="71.3763" r="2" fill="#B5B5B5"/>
<circle cx="9" cy="79.9218" r="2" fill="#B5B5B5"/>
<circle cx="9" cy="88.4673" r="2" fill="#B5B5B5"/>
<circle cx="9" cy="97.0127" r="2" fill="#B5B5B5"/>
<circle cx="51.5" cy="3.5127" r="2.5" fill="#B5B5B5"/>
<circle cx="51.5" cy="11.9673" r="2.5" fill="#B5B5B5"/>
<circle cx="51.5" cy="20.4218" r="2.5" fill="#B5B5B5"/>
<circle cx="51.5" cy="28.8763" r="2.5" fill="#B5B5B5"/>
<circle cx="51.5" cy="37.3309" r="2.5" fill="#B5B5B5"/>
<circle cx="51.5" cy="45.7854" r="2.5" fill="#B5B5B5"/>
<circle cx="51.5" cy="54.24" r="2.5" fill="#B5B5B5"/>
<circle cx="51.5" cy="62.6945" r="2.5" fill="#B5B5B5"/>
<circle cx="51.5" cy="71.149" r="2.5" fill="#B5B5B5"/>
<circle cx="51.5" cy="79.6036" r="2.5" fill="#B5B5B5"/>
<circle cx="51.5" cy="88.0581" r="2.5" fill="#B5B5B5"/>
<circle cx="51.5" cy="96.5127" r="2.5" fill="#B5B5B5"/>
<circle cx="93.5" cy="3.5127" r="2.5" fill="#B5B5B5"/>
<circle cx="93.5" cy="11.9673" r="2.5" fill="#B5B5B5"/>
<circle cx="93.5" cy="20.4218" r="2.5" fill="#B5B5B5"/>
<circle cx="93.5" cy="28.8763" r="2.5" fill="#B5B5B5"/>
<circle cx="93.5" cy="37.3309" r="2.5" fill="#B5B5B5"/>
<circle cx="93.5" cy="45.7854" r="2.5" fill="#B5B5B5"/>
<circle cx="93.5" cy="54.24" r="2.5" fill="#B5B5B5"/>
<circle cx="93.5" cy="62.6945" r="2.5" fill="#B5B5B5"/>
<circle cx="93.5" cy="71.149" r="2.5" fill="#B5B5B5"/>
<circle cx="93.5" cy="79.6036" r="2.5" fill="#B5B5B5"/>
<circle cx="93.5" cy="88.0581" r="2.5" fill="#B5B5B5"/>
<circle cx="93.5" cy="96.5127" r="2.5" fill="#B5B5B5"/>
<circle cx="16.5" cy="3.5127" r="2.5" fill="#B5B5B5"/>
<circle cx="16.5" cy="11.9673" r="2.5" fill="#B5B5B5"/>
<circle cx="16.5" cy="20.4218" r="2.5" fill="#B5B5B5"/>
<circle cx="16.5" cy="28.8763" r="2.5" fill="#B5B5B5"/>
<circle cx="16.5" cy="37.3309" r="2.5" fill="#B5B5B5"/>
<circle cx="16.5" cy="45.7854" r="2.5" fill="#B5B5B5"/>
<circle cx="16.5" cy="54.24" r="2.5" fill="#B5B5B5"/>
<circle cx="16.5" cy="62.6945" r="2.5" fill="#B5B5B5"/>
<circle cx="16.5" cy="71.149" r="2.5" fill="#B5B5B5"/>
<circle cx="16.5" cy="79.6036" r="2.5" fill="#B5B5B5"/>
<circle cx="16.5" cy="88.0581" r="2.5" fill="#B5B5B5"/>
<circle cx="16.5" cy="96.5127" r="2.5" fill="#B5B5B5"/>
<circle cx="58.5" cy="3.5" r="2.5" fill="#B5B5B5"/>
<circle cx="58.5" cy="10.75" r="2.5" fill="#B5B5B5"/>
<circle cx="58.5" cy="18" r="2.5" fill="#B5B5B5"/>
<circle cx="58.5" cy="25.25" r="2.5" fill="#B5B5B5"/>
<circle cx="58.5" cy="32.5" r="2.5" fill="#B5B5B5"/>
<circle cx="58.5" cy="68.5" r="2.5" fill="#B5B5B5"/>
<circle cx="58.5" cy="75.5" r="2.5" fill="#B5B5B5"/>
<circle cx="58.5" cy="82.5" r="2.5" fill="#B5B5B5"/>
<circle cx="58.5" cy="89.5" r="2.5" fill="#B5B5B5"/>
<circle cx="58.5" cy="96.5" r="2.5" fill="#B5B5B5"/>
<circle cx="100" cy="3.0127" r="2" fill="#B5B5B5"/>
<circle cx="100" cy="11.5581" r="2" fill="#B5B5B5"/>
<circle cx="100" cy="20.1036" r="2" fill="#B5B5B5"/>
<circle cx="100" cy="28.649" r="2" fill="#B5B5B5"/>
<circle cx="100" cy="37.1945" r="2" fill="#B5B5B5"/>
<circle cx="100" cy="45.74" r="2" fill="#B5B5B5"/>
<circle cx="100" cy="54.2854" r="2" fill="#B5B5B5"/>
<circle cx="100" cy="62.8309" r="2" fill="#B5B5B5"/>
<circle cx="100" cy="71.3763" r="2" fill="#B5B5B5"/>
<circle cx="100" cy="79.9218" r="2" fill="#B5B5B5"/>
<circle cx="100" cy="88.4673" r="2" fill="#B5B5B5"/>
<circle cx="100" cy="97.0127" r="2" fill="#B5B5B5"/>
<circle cx="23.5" cy="3.5127" r="2.5" fill="#B5B5B5"/>
<circle cx="23.5" cy="11.9673" r="2.5" fill="#B5B5B5"/>
<circle cx="23.5" cy="20.4218" r="2.5" fill="#B5B5B5"/>
<circle cx="23.5" cy="28.8763" r="2.5" fill="#B5B5B5"/>
<circle cx="23.5" cy="37.3309" r="2.5" fill="#B5B5B5"/>
<circle cx="23.5" cy="45.7854" r="2.5" fill="#B5B5B5"/>
<circle cx="23.5" cy="54.24" r="2.5" fill="#B5B5B5"/>
<circle cx="23.5" cy="62.6945" r="2.5" fill="#B5B5B5"/>
<circle cx="23.5" cy="71.149" r="2.5" fill="#B5B5B5"/>
<circle cx="23.5" cy="79.6036" r="2.5" fill="#B5B5B5"/>
<circle cx="23.5" cy="88.0581" r="2.5" fill="#B5B5B5"/>
<circle cx="23.5" cy="96.5127" r="2.5" fill="#B5B5B5"/>
<circle cx="65.5" cy="3.5127" r="2.5" fill="#B5B5B5"/>
<circle cx="65.5" cy="11.2627" r="2.5" fill="#B5B5B5"/>
<circle cx="65.5" cy="19.0127" r="2.5" fill="#B5B5B5"/>
<circle cx="65.5" cy="26.7627" r="2.5" fill="#B5B5B5"/>
<circle cx="65.5" cy="34.5127" r="2.5" fill="#B5B5B5"/>
<circle cx="65.5" cy="42.2627" r="2.5" fill="#B5B5B5"/>
<circle cx="65.5" cy="50.0127" r="2.5" fill="#B5B5B5"/>
<circle cx="65.5" cy="57.7627" r="2.5" fill="#B5B5B5"/>
<circle cx="65.5" cy="65.5127" r="2.5" fill="#B5B5B5"/>
<circle cx="65.5" cy="73.2627" r="2.5" fill="#B5B5B5"/>
<circle cx="65.5" cy="81.0127" r="2.5" fill="#B5B5B5"/>
<circle cx="65.5" cy="88.7627" r="2.5" fill="#B5B5B5"/>
<circle cx="65.5" cy="96.5127" r="2.5" fill="#B5B5B5"/>
<circle cx="107" cy="3.0127" r="2" fill="#B5B5B5"/>
<circle cx="107" cy="11.5581" r="2" fill="#B5B5B5"/>
<circle cx="107" cy="20.1036" r="2" fill="#B5B5B5"/>
<circle cx="107" cy="28.649" r="2" fill="#B5B5B5"/>
<circle cx="107" cy="37.1945" r="2" fill="#B5B5B5"/>
<circle cx="107" cy="45.74" r="2" fill="#B5B5B5"/>
<circle cx="107" cy="54.2854" r="2" fill="#B5B5B5"/>
<circle cx="107" cy="62.8309" r="2" fill="#B5B5B5"/>
<circle cx="107" cy="71.3763" r="2" fill="#B5B5B5"/>
<circle cx="107" cy="79.9218" r="2" fill="#B5B5B5"/>
<circle cx="107" cy="88.4673" r="2" fill="#B5B5B5"/>
<circle cx="107" cy="97.0127" r="2" fill="#B5B5B5"/>
<circle cx="30.5" cy="3.5127" r="2.5" fill="#B5B5B5"/>
<circle cx="30.5" cy="11.9673" r="2.5" fill="#B5B5B5"/>
<circle cx="30.5" cy="20.4218" r="2.5" fill="#B5B5B5"/>
<circle cx="30.5" cy="28.8763" r="2.5" fill="#B5B5B5"/>
<circle cx="30.5" cy="37.3309" r="2.5" fill="#B5B5B5"/>
<circle cx="30.5" cy="45.7854" r="2.5" fill="#B5B5B5"/>
<circle cx="30.5" cy="54.24" r="2.5" fill="#B5B5B5"/>
<circle cx="30.5" cy="62.6945" r="2.5" fill="#B5B5B5"/>
<circle cx="30.5" cy="71.149" r="2.5" fill="#B5B5B5"/>
<circle cx="30.5" cy="79.6036" r="2.5" fill="#B5B5B5"/>
<circle cx="30.5" cy="88.0581" r="2.5" fill="#B5B5B5"/>
<circle cx="30.5" cy="96.5127" r="2.5" fill="#B5B5B5"/>
<circle cx="72.5" cy="3.5127" r="2.5" fill="#B5B5B5"/>
<circle cx="72.5" cy="10.6665" r="2.5" fill="#B5B5B5"/>
<circle cx="72.5" cy="17.8204" r="2.5" fill="#B5B5B5"/>
<circle cx="72.5" cy="24.9742" r="2.5" fill="#B5B5B5"/>
<circle cx="72.5" cy="32.1281" r="2.5" fill="#B5B5B5"/>
<circle cx="72.5" cy="39.2819" r="2.5" fill="#B5B5B5"/>
<circle cx="72.5" cy="46.4358" r="2.5" fill="#B5B5B5"/>
<circle cx="72.5" cy="53.5896" r="2.5" fill="#B5B5B5"/>
<circle cx="72.5" cy="60.7435" r="2.5" fill="#B5B5B5"/>
<circle cx="72.5" cy="67.8973" r="2.5" fill="#B5B5B5"/>
<circle cx="72.5" cy="75.0511" r="2.5" fill="#B5B5B5"/>
<circle cx="72.5" cy="82.205" r="2.5" fill="#B5B5B5"/>
<circle cx="72.5" cy="89.3589" r="2.5" fill="#B5B5B5"/>
<circle cx="72.5" cy="96.5127" r="2.5" fill="#B5B5B5"/>
<circle cx="114" cy="3.0127" r="2" fill="#B5B5B5"/>
<circle cx="114" cy="11.5581" r="2" fill="#B5B5B5"/>
<circle cx="114" cy="20.1036" r="2" fill="#B5B5B5"/>
<circle cx="114" cy="28.649" r="2" fill="#B5B5B5"/>
<circle cx="114" cy="37.1945" r="2" fill="#B5B5B5"/>
<circle cx="114" cy="45.74" r="2" fill="#B5B5B5"/>
<circle cx="114" cy="54.2854" r="2" fill="#B5B5B5"/>
<circle cx="114" cy="62.8309" r="2" fill="#B5B5B5"/>
<circle cx="114" cy="71.3763" r="2" fill="#B5B5B5"/>
<circle cx="114" cy="79.9218" r="2" fill="#B5B5B5"/>
<circle cx="114" cy="88.4673" r="2" fill="#B5B5B5"/>
<circle cx="114" cy="97.0127" r="2" fill="#B5B5B5"/>
<circle cx="37.5" cy="3.5127" r="2.5" fill="#B5B5B5"/>
<circle cx="37.5" cy="11.9673" r="2.5" fill="#B5B5B5"/>
<circle cx="37.5" cy="20.4218" r="2.5" fill="#B5B5B5"/>
<circle cx="37.5" cy="28.8763" r="2.5" fill="#B5B5B5"/>
<circle cx="37.5" cy="37.3309" r="2.5" fill="#B5B5B5"/>
<circle cx="37.5" cy="45.7854" r="2.5" fill="#B5B5B5"/>
<circle cx="37.5" cy="54.24" r="2.5" fill="#B5B5B5"/>
<circle cx="37.5" cy="62.6945" r="2.5" fill="#B5B5B5"/>
<circle cx="37.5" cy="71.149" r="2.5" fill="#B5B5B5"/>
<circle cx="37.5" cy="79.6036" r="2.5" fill="#B5B5B5"/>
<circle cx="37.5" cy="88.0581" r="2.5" fill="#B5B5B5"/>
<circle cx="37.5" cy="96.5127" r="2.5" fill="#B5B5B5"/>
<circle cx="79.5" cy="3.5127" r="2.5" fill="#B5B5B5"/>
<circle cx="79.5" cy="11.2627" r="2.5" fill="#B5B5B5"/>
<circle cx="79.5" cy="19.0127" r="2.5" fill="#B5B5B5"/>
<circle cx="79.5" cy="26.7627" r="2.5" fill="#B5B5B5"/>
<circle cx="79.5" cy="34.5127" r="2.5" fill="#B5B5B5"/>
<circle cx="79.5" cy="42.2627" r="2.5" fill="#B5B5B5"/>
<circle cx="79.5" cy="50.0127" r="2.5" fill="#B5B5B5"/>
<circle cx="79.5" cy="57.7627" r="2.5" fill="#B5B5B5"/>
<circle cx="79.5" cy="65.5127" r="2.5" fill="#B5B5B5"/>
<circle cx="79.5" cy="73.2627" r="2.5" fill="#B5B5B5"/>
<circle cx="79.5" cy="81.0127" r="2.5" fill="#B5B5B5"/>
<circle cx="79.5" cy="88.7627" r="2.5" fill="#B5B5B5"/>
<circle cx="79.5" cy="96.5127" r="2.5" fill="#B5B5B5"/>
<circle cx="44.5" cy="3.5127" r="2.5" fill="#B5B5B5"/>
<circle cx="44.5" cy="11.9673" r="2.5" fill="#B5B5B5"/>
<circle cx="44.5" cy="20.4218" r="2.5" fill="#B5B5B5"/>
<circle cx="44.5" cy="28.8763" r="2.5" fill="#B5B5B5"/>
<circle cx="44.5" cy="37.3309" r="2.5" fill="#B5B5B5"/>
<circle cx="44.5" cy="45.7854" r="2.5" fill="#B5B5B5"/>
<circle cx="44.5" cy="54.24" r="2.5" fill="#B5B5B5"/>
<circle cx="44.5" cy="62.6945" r="2.5" fill="#B5B5B5"/>
<circle cx="44.5" cy="71.149" r="2.5" fill="#B5B5B5"/>
<circle cx="44.5" cy="79.6036" r="2.5" fill="#B5B5B5"/>
<circle cx="44.5" cy="88.0581" r="2.5" fill="#B5B5B5"/>
<circle cx="44.5" cy="96.5127" r="2.5" fill="#B5B5B5"/>
<circle cx="86.5" cy="3.5127" r="2.5" fill="#B5B5B5"/>
<circle cx="86.5" cy="11.9673" r="2.5" fill="#B5B5B5"/>
<circle cx="86.5" cy="20.4218" r="2.5" fill="#B5B5B5"/>
<circle cx="86.5" cy="28.8763" r="2.5" fill="#B5B5B5"/>
<circle cx="86.5" cy="37.3309" r="2.5" fill="#B5B5B5"/>
<circle cx="86.5" cy="45.7854" r="2.5" fill="#B5B5B5"/>
<circle cx="86.5" cy="54.24" r="2.5" fill="#B5B5B5"/>
<circle cx="86.5" cy="62.6945" r="2.5" fill="#B5B5B5"/>
<circle cx="86.5" cy="71.149" r="2.5" fill="#B5B5B5"/>
<circle cx="86.5" cy="79.6036" r="2.5" fill="#B5B5B5"/>
<circle cx="86.5" cy="88.0581" r="2.5" fill="#B5B5B5"/>
<circle cx="86.5" cy="96.5127" r="2.5" fill="#B5B5B5"/>
<path d="M82.2309 53.2164L54.3941 67.5774C52.0317 68.7949 49 67.3207 49 64.8662V36.1443C49 33.6937 52.0274 32.2156 54.3941 33.437L82.2309 47.798C82.7683 48.0707 83.215 48.465 83.5257 48.9408C83.8363 49.4166 84 49.957 84 50.5072C84 51.0574 83.8363 51.5978 83.5257 52.0736C83.215 52.5494 82.7683 52.9436 82.2309 53.2164Z" fill="#F1F1F1"/>
</g>
<defs>
<clipPath id="clip0_348_1305">
<rect y="0.0126953" width="124" height="99" rx="10" fill="white"/>
</clipPath>
</defs>
</svg>
