<svg width="124" height="124" viewBox="0 0 124 124" fill="none" xmlns="http://www.w3.org/2000/svg">
<g clip-path="url(#clip0_612_1124)">
<circle cx="5" cy="12" r="2" fill="#B5B5B5"/>
<circle cx="5" cy="19.6154" r="2" fill="#B5B5B5"/>
<circle cx="5" cy="27.2308" r="2" fill="#B5B5B5"/>
<circle cx="5" cy="34.8462" r="2" fill="#B5B5B5"/>
<circle cx="5" cy="42.4615" r="2" fill="#B5B5B5"/>
<circle cx="5" cy="50.0769" r="2" fill="#B5B5B5"/>
<circle cx="5" cy="57.6923" r="2" fill="#B5B5B5"/>
<circle cx="5" cy="65.3077" r="2" fill="#B5B5B5"/>
<circle cx="5" cy="72.9231" r="2" fill="#B5B5B5"/>
<circle cx="5" cy="80.5385" r="2" fill="#B5B5B5"/>
<circle cx="5" cy="88.1538" r="2" fill="#B5B5B5"/>
<circle cx="5" cy="95.7692" r="2" fill="#B5B5B5"/>
<circle cx="5" cy="103.385" r="2" fill="#B5B5B5"/>
<circle cx="5" cy="111" r="2" fill="#B5B5B5"/>
<circle cx="12.5" cy="4.5" r="2.5" fill="#B5B5B5"/>
<circle cx="12.5" cy="12.125" r="2.5" fill="#B5B5B5"/>
<circle cx="12.5" cy="19.75" r="2.5" fill="#B5B5B5"/>
<circle cx="12.5" cy="27.375" r="2.5" fill="#B5B5B5"/>
<circle cx="12.5" cy="35" r="2.5" fill="#B5B5B5"/>
<circle cx="12.5" cy="42.625" r="2.5" fill="#B5B5B5"/>
<circle cx="12.5" cy="50.25" r="2.5" fill="#B5B5B5"/>
<circle cx="12.5" cy="57.875" r="2.5" fill="#B5B5B5"/>
<circle cx="12.5" cy="65.5" r="2.5" fill="#B5B5B5"/>
<circle cx="12.5" cy="73.125" r="2.5" fill="#B5B5B5"/>
<circle cx="12.5" cy="80.75" r="2.5" fill="#B5B5B5"/>
<circle cx="12.5" cy="88.375" r="2.5" fill="#B5B5B5"/>
<circle cx="12.5" cy="96" r="2.5" fill="#B5B5B5"/>
<circle cx="12.5" cy="103.625" r="2.5" fill="#B5B5B5"/>
<circle cx="12.5" cy="111.25" r="2.5" fill="#B5B5B5"/>
<circle cx="12.5" cy="118.875" r="2.5" fill="#B5B5B5"/>
<circle cx="20.8077" cy="4.5" r="2.5" fill="#B5B5B5"/>
<circle cx="20.8077" cy="12.125" r="2.5" fill="#B5B5B5"/>
<circle cx="20.8077" cy="19.75" r="2.5" fill="#B5B5B5"/>
<circle cx="20.8077" cy="27.375" r="2.5" fill="#B5B5B5"/>
<circle cx="20.8077" cy="35" r="2.5" fill="#B5B5B5"/>
<circle cx="20.8077" cy="42.625" r="2.5" fill="#B5B5B5"/>
<circle cx="20.8077" cy="50.25" r="2.5" fill="#B5B5B5"/>
<circle cx="20.8077" cy="57.875" r="2.5" fill="#B5B5B5"/>
<circle cx="20.8077" cy="65.5" r="2.5" fill="#B5B5B5"/>
<circle cx="20.8077" cy="73.125" r="2.5" fill="#B5B5B5"/>
<circle cx="20.8077" cy="80.75" r="2.5" fill="#B5B5B5"/>
<circle cx="20.8077" cy="88.375" r="2.5" fill="#B5B5B5"/>
<circle cx="20.8077" cy="96" r="2.5" fill="#B5B5B5"/>
<circle cx="20.8077" cy="103.625" r="2.5" fill="#B5B5B5"/>
<circle cx="20.8077" cy="111.25" r="2.5" fill="#B5B5B5"/>
<circle cx="20.8077" cy="118.875" r="2.5" fill="#B5B5B5"/>
<circle cx="29.1154" cy="4.5" r="2.5" fill="#B5B5B5"/>
<circle cx="29.1154" cy="13.2143" r="2.5" fill="#B5B5B5"/>
<circle cx="29.1154" cy="21.9286" r="2.5" fill="#B5B5B5"/>
<circle cx="29.1154" cy="30.6429" r="2.5" fill="#B5B5B5"/>
<circle cx="29.1154" cy="39.3571" r="2.5" fill="#B5B5B5"/>
<circle cx="29.1154" cy="48.0714" r="2.5" fill="#B5B5B5"/>
<circle cx="29.1154" cy="56.7857" r="2.5" fill="#B5B5B5"/>
<circle cx="29.1154" cy="65.5" r="2.5" fill="#B5B5B5"/>
<circle cx="29.1154" cy="74.2143" r="2.5" fill="#B5B5B5"/>
<circle cx="29.1154" cy="86.5" r="2.5" fill="#B5B5B5"/>
<circle cx="29.1154" cy="94.5" r="2.5" fill="#B5B5B5"/>
<circle cx="29.1154" cy="102.5" r="2.5" fill="#B5B5B5"/>
<circle cx="29.1154" cy="110.5" r="2.5" fill="#B5B5B5"/>
<circle cx="29.1154" cy="118.5" r="2.5" fill="#B5B5B5"/>
<circle cx="37.5" cy="4.5" r="2.5" fill="#B5B5B5"/>
<circle cx="37.5" cy="13.2692" r="2.5" fill="#B5B5B5"/>
<circle cx="37.5" cy="22.0385" r="2.5" fill="#B5B5B5"/>
<circle cx="37.5" cy="30.8077" r="2.5" fill="#B5B5B5"/>
<circle cx="37.5" cy="39.5769" r="2.5" fill="#B5B5B5"/>
<circle cx="37.5" cy="48.3462" r="2.5" fill="#B5B5B5"/>
<circle cx="37.5" cy="65.8846" r="2.5" fill="#B5B5B5"/>
<circle cx="37.5" cy="74.6538" r="2.5" fill="#B5B5B5"/>
<circle cx="37.5" cy="83.4231" r="2.5" fill="#B5B5B5"/>
<circle cx="37.5" cy="92.1923" r="2.5" fill="#B5B5B5"/>
<circle cx="37.5" cy="100.962" r="2.5" fill="#B5B5B5"/>
<circle cx="37.5" cy="109.731" r="2.5" fill="#B5B5B5"/>
<circle cx="37.5" cy="118.5" r="2.5" fill="#B5B5B5"/>
<circle cx="45.7307" cy="4.5" r="2.5" fill="#B5B5B5"/>
<circle cx="45.7307" cy="12.6333" r="2.5" fill="#B5B5B5"/>
<circle cx="45.7307" cy="20.7667" r="2.5" fill="#B5B5B5"/>
<circle cx="45.7307" cy="28.9" r="2.5" fill="#B5B5B5"/>
<circle cx="45.7307" cy="37.0333" r="2.5" fill="#B5B5B5"/>
<circle cx="45.7307" cy="53.3" r="2.5" fill="#B5B5B5"/>
<circle cx="45.7307" cy="61.4333" r="2.5" fill="#B5B5B5"/>
<circle cx="45.7307" cy="69.5667" r="2.5" fill="#B5B5B5"/>
<circle cx="45.7307" cy="77.7" r="2.5" fill="#B5B5B5"/>
<circle cx="45.7307" cy="90.5" r="2.5" fill="#B5B5B5"/>
<circle cx="45.7307" cy="97.5" r="2.5" fill="#B5B5B5"/>
<circle cx="45.7307" cy="104.5" r="2.5" fill="#B5B5B5"/>
<circle cx="45.7307" cy="111.5" r="2.5" fill="#B5B5B5"/>
<circle cx="45.7307" cy="118.5" r="2.5" fill="#B5B5B5"/>
<circle cx="54.0385" cy="4.5" r="2.5" fill="#B5B5B5"/>
<circle cx="54.0385" cy="12.125" r="2.5" fill="#B5B5B5"/>
<circle cx="54.0385" cy="19.75" r="2.5" fill="#B5B5B5"/>
<circle cx="54.0385" cy="27.375" r="2.5" fill="#B5B5B5"/>
<circle cx="54.0385" cy="35" r="2.5" fill="#B5B5B5"/>
<circle cx="54.0385" cy="42.625" r="2.5" fill="#B5B5B5"/>
<circle cx="54.0385" cy="50.25" r="2.5" fill="#B5B5B5"/>
<circle cx="54.0385" cy="57.875" r="2.5" fill="#B5B5B5"/>
<circle cx="54.0385" cy="65.5" r="2.5" fill="#B5B5B5"/>
<circle cx="54.0385" cy="73.125" r="2.5" fill="#B5B5B5"/>
<circle cx="54.0385" cy="80.75" r="2.5" fill="#B5B5B5"/>
<circle cx="54.0385" cy="89.375" r="2.5" fill="#B5B5B5"/>
<circle cx="54.0385" cy="96" r="2.5" fill="#B5B5B5"/>
<circle cx="54.0385" cy="103.625" r="2.5" fill="#B5B5B5"/>
<circle cx="54.0385" cy="111.25" r="2.5" fill="#B5B5B5"/>
<circle cx="54.0385" cy="118.875" r="2.5" fill="#B5B5B5"/>
<circle cx="62.3462" cy="4.5" r="2.5" fill="#B5B5B5"/>
<circle cx="62.3462" cy="12.125" r="2.5" fill="#B5B5B5"/>
<circle cx="62.3462" cy="19.75" r="2.5" fill="#B5B5B5"/>
<circle cx="62.3462" cy="27.375" r="2.5" fill="#B5B5B5"/>
<circle cx="62.3462" cy="42.625" r="2.5" fill="#B5B5B5"/>
<circle cx="62.3462" cy="50.25" r="2.5" fill="#B5B5B5"/>
<circle cx="62.3462" cy="57.875" r="2.5" fill="#B5B5B5"/>
<circle cx="62.3462" cy="65.5" r="2.5" fill="#B5B5B5"/>
<circle cx="62.3462" cy="73.125" r="2.5" fill="#B5B5B5"/>
<circle cx="62.3462" cy="80.75" r="2.5" fill="#B5B5B5"/>
<circle cx="62.3462" cy="89.375" r="2.5" fill="#B5B5B5"/>
<circle cx="62.3462" cy="96" r="2.5" fill="#B5B5B5"/>
<circle cx="62.3462" cy="103.625" r="2.5" fill="#B5B5B5"/>
<circle cx="62.3462" cy="111.25" r="2.5" fill="#B5B5B5"/>
<circle cx="62.3462" cy="118.875" r="2.5" fill="#B5B5B5"/>
<circle cx="63" cy="34" r="2" fill="#B5B5B5"/>
<circle cx="70.6538" cy="4.5" r="2.5" fill="#B5B5B5"/>
<circle cx="70.6538" cy="12.125" r="2.5" fill="#B5B5B5"/>
<circle cx="70.6538" cy="19.75" r="2.5" fill="#B5B5B5"/>
<circle cx="70.6538" cy="27.375" r="2.5" fill="#B5B5B5"/>
<circle cx="70.6538" cy="35" r="2.5" fill="#B5B5B5"/>
<circle cx="70.6538" cy="50.25" r="2.5" fill="#B5B5B5"/>
<circle cx="70.6538" cy="57.875" r="2.5" fill="#B5B5B5"/>
<circle cx="70.6538" cy="65.5" r="2.5" fill="#B5B5B5"/>
<circle cx="70.6538" cy="73.125" r="2.5" fill="#B5B5B5"/>
<circle cx="70.6538" cy="80.75" r="2.5" fill="#B5B5B5"/>
<circle cx="70.6538" cy="89.375" r="2.5" fill="#B5B5B5"/>
<circle cx="70.6538" cy="96" r="2.5" fill="#B5B5B5"/>
<circle cx="70.6538" cy="103.625" r="2.5" fill="#B5B5B5"/>
<circle cx="70.6538" cy="111.25" r="2.5" fill="#B5B5B5"/>
<circle cx="70.6538" cy="118.875" r="2.5" fill="#B5B5B5"/>
<circle cx="78.9615" cy="4.5" r="2.5" fill="#B5B5B5"/>
<circle cx="78.9615" cy="12.125" r="2.5" fill="#B5B5B5"/>
<circle cx="78.9615" cy="19.75" r="2.5" fill="#B5B5B5"/>
<circle cx="78.9615" cy="27.375" r="2.5" fill="#B5B5B5"/>
<circle cx="78.9615" cy="35" r="2.5" fill="#B5B5B5"/>
<circle cx="78.9615" cy="42.625" r="2.5" fill="#B5B5B5"/>
<circle cx="78.9615" cy="57.875" r="2.5" fill="#B5B5B5"/>
<circle cx="78.9615" cy="65.5" r="2.5" fill="#B5B5B5"/>
<circle cx="78.9615" cy="73.125" r="2.5" fill="#B5B5B5"/>
<circle cx="78.9615" cy="80.75" r="2.5" fill="#B5B5B5"/>
<circle cx="78.9615" cy="89.375" r="2.5" fill="#B5B5B5"/>
<circle cx="78.9615" cy="96" r="2.5" fill="#B5B5B5"/>
<circle cx="78.9615" cy="103.625" r="2.5" fill="#B5B5B5"/>
<circle cx="78.9615" cy="111.25" r="2.5" fill="#B5B5B5"/>
<circle cx="78.9615" cy="118.875" r="2.5" fill="#B5B5B5"/>
<circle cx="87.2693" cy="4.5" r="2.5" fill="#B5B5B5"/>
<circle cx="87.2693" cy="12.6333" r="2.5" fill="#B5B5B5"/>
<circle cx="87.2693" cy="20.7667" r="2.5" fill="#B5B5B5"/>
<circle cx="87.2693" cy="28.9" r="2.5" fill="#B5B5B5"/>
<circle cx="87.2693" cy="37.0333" r="2.5" fill="#B5B5B5"/>
<circle cx="87.2693" cy="45.1667" r="2.5" fill="#B5B5B5"/>
<circle cx="87.2693" cy="53.3" r="2.5" fill="#B5B5B5"/>
<circle cx="87.2693" cy="61.4333" r="2.5" fill="#B5B5B5"/>
<circle cx="87.2693" cy="69.5667" r="2.5" fill="#B5B5B5"/>
<circle cx="87.2693" cy="77.7" r="2.5" fill="#B5B5B5"/>
<circle cx="87.2693" cy="87.8333" r="2.5" fill="#B5B5B5"/>
<circle cx="87.2693" cy="95.9667" r="2.5" fill="#B5B5B5"/>
<circle cx="87.2693" cy="104.1" r="2.5" fill="#B5B5B5"/>
<circle cx="87.2693" cy="111.233" r="2.5" fill="#B5B5B5"/>
<circle cx="87.2693" cy="118.367" r="2.5" fill="#B5B5B5"/>
<circle cx="95.5769" cy="4.5" r="2.5" fill="#B5B5B5"/>
<circle cx="95.5769" cy="12.125" r="2.5" fill="#B5B5B5"/>
<circle cx="95.5769" cy="19.75" r="2.5" fill="#B5B5B5"/>
<circle cx="95.5769" cy="27.375" r="2.5" fill="#B5B5B5"/>
<circle cx="95.5769" cy="35" r="2.5" fill="#B5B5B5"/>
<circle cx="95.5769" cy="42.625" r="2.5" fill="#B5B5B5"/>
<circle cx="95.5769" cy="50.25" r="2.5" fill="#B5B5B5"/>
<circle cx="95.5769" cy="82.75" r="2.5" fill="#B5B5B5"/>
<circle cx="95.5769" cy="89.375" r="2.5" fill="#B5B5B5"/>
<circle cx="95.5769" cy="97" r="2.5" fill="#B5B5B5"/>
<circle cx="95.5769" cy="104.625" r="2.5" fill="#B5B5B5"/>
<circle cx="95.5769" cy="111.25" r="2.5" fill="#B5B5B5"/>
<circle cx="95.5769" cy="118.875" r="2.5" fill="#B5B5B5"/>
<circle cx="103.885" cy="4.5" r="2.5" fill="#B5B5B5"/>
<circle cx="103.885" cy="12.125" r="2.5" fill="#B5B5B5"/>
<circle cx="103.885" cy="19.75" r="2.5" fill="#B5B5B5"/>
<circle cx="103.885" cy="27.375" r="2.5" fill="#B5B5B5"/>
<circle cx="103.885" cy="35" r="2.5" fill="#B5B5B5"/>
<circle cx="103.885" cy="42.625" r="2.5" fill="#B5B5B5"/>
<circle cx="103.885" cy="50.25" r="2.5" fill="#B5B5B5"/>
<circle cx="103.885" cy="57.875" r="2.5" fill="#B5B5B5"/>
<circle cx="103.885" cy="65.5" r="2.5" fill="#B5B5B5"/>
<circle cx="103.885" cy="73.125" r="2.5" fill="#B5B5B5"/>
<circle cx="103.885" cy="80.75" r="2.5" fill="#B5B5B5"/>
<circle cx="103.885" cy="88.375" r="2.5" fill="#B5B5B5"/>
<circle cx="103.885" cy="96" r="2.5" fill="#B5B5B5"/>
<circle cx="103.885" cy="103.625" r="2.5" fill="#B5B5B5"/>
<circle cx="103.885" cy="111.25" r="2.5" fill="#B5B5B5"/>
<circle cx="103.885" cy="118.875" r="2.5" fill="#B5B5B5"/>
<circle cx="112.192" cy="4.5" r="2.5" fill="#B5B5B5"/>
<circle cx="112.192" cy="12.125" r="2.5" fill="#B5B5B5"/>
<circle cx="112.192" cy="19.75" r="2.5" fill="#B5B5B5"/>
<circle cx="112.192" cy="27.375" r="2.5" fill="#B5B5B5"/>
<circle cx="112.192" cy="35" r="2.5" fill="#B5B5B5"/>
<circle cx="112.192" cy="42.625" r="2.5" fill="#B5B5B5"/>
<circle cx="112.192" cy="50.25" r="2.5" fill="#B5B5B5"/>
<circle cx="112.192" cy="57.875" r="2.5" fill="#B5B5B5"/>
<circle cx="112.192" cy="65.5" r="2.5" fill="#B5B5B5"/>
<circle cx="112.192" cy="73.125" r="2.5" fill="#B5B5B5"/>
<circle cx="112.192" cy="80.75" r="2.5" fill="#B5B5B5"/>
<circle cx="112.192" cy="88.375" r="2.5" fill="#B5B5B5"/>
<circle cx="112.192" cy="96" r="2.5" fill="#B5B5B5"/>
<circle cx="112.192" cy="103.625" r="2.5" fill="#B5B5B5"/>
<circle cx="112.192" cy="111.25" r="2.5" fill="#B5B5B5"/>
<circle cx="112.192" cy="118.875" r="2.5" fill="#B5B5B5"/>
<path d="M99 67.3136C99 77.6338 90.529 86 80.0795 86C72.9918 86 66.8142 82.1509 63.5731 76.4537C62.0358 73.7515 61.1591 70.6337 61.1591 67.3136C61.1591 56.9933 69.6301 48.6271 80.0795 48.6271C90.529 48.6271 99 56.9933 99 67.3136Z" fill="#F1F1F1"/>
<path fill-rule="evenodd" clip-rule="evenodd" d="M79.6591 56.9322C79.6591 66.5545 72.7554 74.5843 63.5731 76.4537C62.2505 76.7229 60.8806 76.8644 59.4773 76.8644C57.4661 76.8644 55.5237 76.5739 53.6906 76.033C54.1715 74.5968 54.4318 73.0615 54.4318 71.4661C54.4318 63.4392 47.8433 56.9322 39.7159 56.9322C39.5753 56.9322 39.4351 56.9342 39.2955 56.938L39.2955 56.9322C39.2955 45.924 48.3312 37 59.4773 37C70.6234 37 79.6591 45.924 79.6591 56.9322Z" fill="#F1F1F1"/>
<path d="M54.4318 71.4661C54.4318 63.4392 47.8433 56.9322 39.7159 56.9322C39.5753 56.9322 39.4351 56.9342 39.2955 56.938C39.2981 65.9575 45.3664 73.5767 53.6906 76.033C54.1715 74.5968 54.4318 73.0615 54.4318 71.4661Z" fill="#F1F1F1"/>
<path d="M25 71.4661C25 79.493 31.5885 86 39.7159 86C46.2279 86 51.752 81.8225 53.6906 76.033C45.3664 73.5767 39.2981 65.9575 39.2955 56.938C31.3625 57.1578 25 63.5781 25 71.4661Z" fill="#F1F1F1"/>
<path d="M63.5731 76.4537C62.2505 76.7229 60.8806 76.8644 59.4773 76.8644C57.4661 76.8644 55.5237 76.5739 53.6906 76.033C51.752 81.8225 46.2279 86 39.7159 86H80.0795C72.9918 86 66.8142 82.1509 63.5731 76.4537Z" fill="#F1F1F1"/>
<circle cx="120" cy="12" r="2" fill="#B5B5B5"/>
<circle cx="120" cy="19.6154" r="2" fill="#B5B5B5"/>
<circle cx="120" cy="27.2308" r="2" fill="#B5B5B5"/>
<circle cx="120" cy="34.8462" r="2" fill="#B5B5B5"/>
<circle cx="120" cy="42.4615" r="2" fill="#B5B5B5"/>
<circle cx="120" cy="50.0769" r="2" fill="#B5B5B5"/>
<circle cx="120" cy="57.6923" r="2" fill="#B5B5B5"/>
<circle cx="120" cy="65.3077" r="2" fill="#B5B5B5"/>
<circle cx="120" cy="72.9231" r="2" fill="#B5B5B5"/>
<circle cx="120" cy="80.5385" r="2" fill="#B5B5B5"/>
<circle cx="120" cy="88.1538" r="2" fill="#B5B5B5"/>
<circle cx="120" cy="95.7692" r="2" fill="#B5B5B5"/>
<circle cx="120" cy="103.385" r="2" fill="#B5B5B5"/>
<circle cx="120" cy="111" r="2" fill="#B5B5B5"/>
</g>
<defs>
<clipPath id="clip0_612_1124">
<rect width="124" height="124" rx="10" fill="white"/>
</clipPath>
</defs>
</svg>
