<svg width="124" height="124" viewBox="0 0 124 124" fill="none" xmlns="http://www.w3.org/2000/svg">
<g clip-path="url(#clip0_411_2840)">
<circle cx="6" cy="4" r="2" fill="#B5B5B5"/>
<circle cx="6" cy="11.2353" r="2" fill="#B5B5B5"/>
<circle cx="6" cy="18.4706" r="2" fill="#B5B5B5"/>
<circle cx="6" cy="25.7059" r="2" fill="#B5B5B5"/>
<circle cx="6" cy="32.9412" r="2" fill="#B5B5B5"/>
<circle cx="6" cy="40.1765" r="2" fill="#B5B5B5"/>
<circle cx="6" cy="47.4118" r="2" fill="#B5B5B5"/>
<circle cx="6" cy="54.6471" r="2" fill="#B5B5B5"/>
<circle cx="6" cy="61.8824" r="2" fill="#B5B5B5"/>
<circle cx="6" cy="69.1176" r="2" fill="#B5B5B5"/>
<circle cx="6" cy="76.3529" r="2" fill="#B5B5B5"/>
<circle cx="6" cy="83.5882" r="2" fill="#B5B5B5"/>
<circle cx="6" cy="90.8235" r="2" fill="#B5B5B5"/>
<circle cx="6" cy="98.0588" r="2" fill="#B5B5B5"/>
<circle cx="6" cy="105.294" r="2" fill="#B5B5B5"/>
<circle cx="6" cy="112.529" r="2" fill="#B5B5B5"/>
<circle cx="6" cy="119.765" r="2" fill="#B5B5B5"/>
<circle cx="13" cy="4" r="2" fill="#B5B5B5"/>
<circle cx="13" cy="11.2353" r="2" fill="#B5B5B5"/>
<circle cx="13" cy="18.4706" r="2" fill="#B5B5B5"/>
<circle cx="13" cy="25.7059" r="2" fill="#B5B5B5"/>
<circle cx="13" cy="32.9412" r="2" fill="#B5B5B5"/>
<circle cx="13" cy="40.1765" r="2" fill="#B5B5B5"/>
<circle cx="13" cy="47.4118" r="2" fill="#B5B5B5"/>
<circle cx="13" cy="54.6471" r="2" fill="#B5B5B5"/>
<circle cx="13" cy="61.8824" r="2" fill="#B5B5B5"/>
<circle cx="13" cy="69.1176" r="2" fill="#B5B5B5"/>
<circle cx="13" cy="76.3529" r="2" fill="#B5B5B5"/>
<circle cx="13" cy="83.5882" r="2" fill="#B5B5B5"/>
<circle cx="13" cy="90.8235" r="2" fill="#B5B5B5"/>
<circle cx="13" cy="98.0588" r="2" fill="#B5B5B5"/>
<circle cx="13" cy="105.294" r="2" fill="#B5B5B5"/>
<circle cx="13" cy="112.529" r="2" fill="#B5B5B5"/>
<circle cx="13" cy="119.765" r="2" fill="#B5B5B5"/>
<circle cx="20" cy="4" r="2" fill="#B5B5B5"/>
<circle cx="20" cy="11.2353" r="2" fill="#B5B5B5"/>
<circle cx="20" cy="18.4706" r="2" fill="#B5B5B5"/>
<circle cx="20" cy="25.7059" r="2" fill="#B5B5B5"/>
<circle cx="20" cy="32.9412" r="2" fill="#B5B5B5"/>
<circle cx="20" cy="40.1765" r="2" fill="#B5B5B5"/>
<circle cx="20" cy="47.4118" r="2" fill="#B5B5B5"/>
<circle cx="20" cy="54.6471" r="2" fill="#B5B5B5"/>
<circle cx="20" cy="61.8824" r="2" fill="#B5B5B5"/>
<circle cx="20" cy="69.1176" r="2" fill="#B5B5B5"/>
<circle cx="20" cy="76.3529" r="2" fill="#B5B5B5"/>
<circle cx="20" cy="83.5882" r="2" fill="#B5B5B5"/>
<circle cx="20" cy="90.8235" r="2" fill="#B5B5B5"/>
<circle cx="20" cy="98.0588" r="2" fill="#B5B5B5"/>
<circle cx="20" cy="105.294" r="2" fill="#B5B5B5"/>
<circle cx="20" cy="112.529" r="2" fill="#B5B5B5"/>
<circle cx="20" cy="119.765" r="2" fill="#B5B5B5"/>
<circle cx="27" cy="4" r="2" fill="#B5B5B5"/>
<circle cx="27" cy="11.2353" r="2" fill="#B5B5B5"/>
<circle cx="27" cy="18.4706" r="2" fill="#B5B5B5"/>
<circle cx="27" cy="25.7059" r="2" fill="#B5B5B5"/>
<circle cx="27" cy="32.9412" r="2" fill="#B5B5B5"/>
<circle cx="27" cy="40.1765" r="2" fill="#B5B5B5"/>
<circle cx="27" cy="47.4118" r="2" fill="#B5B5B5"/>
<circle cx="27" cy="54.6471" r="2" fill="#B5B5B5"/>
<circle cx="27" cy="61.8824" r="2" fill="#B5B5B5"/>
<circle cx="27" cy="69.1176" r="2" fill="#B5B5B5"/>
<circle cx="27" cy="76.3529" r="2" fill="#B5B5B5"/>
<circle cx="27" cy="83.5882" r="2" fill="#B5B5B5"/>
<circle cx="27" cy="90.8235" r="2" fill="#B5B5B5"/>
<circle cx="27" cy="98.0588" r="2" fill="#B5B5B5"/>
<circle cx="27" cy="105.294" r="2" fill="#B5B5B5"/>
<circle cx="27" cy="112.529" r="2" fill="#B5B5B5"/>
<circle cx="27" cy="119.765" r="2" fill="#B5B5B5"/>
<circle cx="34" cy="4" r="2" fill="#B5B5B5"/>
<circle cx="34" cy="11.2353" r="2" fill="#B5B5B5"/>
<circle cx="34" cy="18.4706" r="2" fill="#B5B5B5"/>
<circle cx="34" cy="25.7059" r="2" fill="#B5B5B5"/>
<circle cx="34" cy="32.9412" r="2" fill="#B5B5B5"/>
<circle cx="34" cy="40.1765" r="2" fill="#B5B5B5"/>
<circle cx="34" cy="47.4118" r="2" fill="#B5B5B5"/>
<circle cx="34" cy="54.6471" r="2" fill="#B5B5B5"/>
<circle cx="34" cy="61.8824" r="2" fill="#B5B5B5"/>
<circle cx="34" cy="69.1176" r="2" fill="#B5B5B5"/>
<circle cx="34" cy="76.3529" r="2" fill="#B5B5B5"/>
<circle cx="34" cy="83.5882" r="2" fill="#B5B5B5"/>
<circle cx="34" cy="90.8235" r="2" fill="#B5B5B5"/>
<circle cx="34" cy="98.0588" r="2" fill="#B5B5B5"/>
<circle cx="34" cy="105.294" r="2" fill="#B5B5B5"/>
<circle cx="34" cy="112.529" r="2" fill="#B5B5B5"/>
<circle cx="34" cy="119.765" r="2" fill="#B5B5B5"/>
<circle cx="41" cy="4" r="2" fill="#B5B5B5"/>
<circle cx="41" cy="11.2353" r="2" fill="#B5B5B5"/>
<circle cx="41" cy="18.4706" r="2" fill="#B5B5B5"/>
<circle cx="41" cy="25.7059" r="2" fill="#B5B5B5"/>
<circle cx="41" cy="32.9412" r="2" fill="#B5B5B5"/>
<circle cx="41" cy="40.1765" r="2" fill="#B5B5B5"/>
<circle cx="41" cy="47.4118" r="2" fill="#B5B5B5"/>
<circle cx="41" cy="54.6471" r="2" fill="#B5B5B5"/>
<circle cx="41" cy="61.8824" r="2" fill="#B5B5B5"/>
<circle cx="41" cy="69.1176" r="2" fill="#B5B5B5"/>
<circle cx="41" cy="76.3529" r="2" fill="#B5B5B5"/>
<circle cx="41" cy="83.5882" r="2" fill="#B5B5B5"/>
<circle cx="41" cy="90.8235" r="2" fill="#B5B5B5"/>
<circle cx="41" cy="98.0588" r="2" fill="#B5B5B5"/>
<circle cx="41" cy="105.294" r="2" fill="#B5B5B5"/>
<circle cx="41" cy="112.529" r="2" fill="#B5B5B5"/>
<circle cx="41" cy="119.765" r="2" fill="#B5B5B5"/>
<circle cx="48" cy="4" r="2" fill="#B5B5B5"/>
<circle cx="48" cy="11.2353" r="2" fill="#B5B5B5"/>
<circle cx="48" cy="18.4706" r="2" fill="#B5B5B5"/>
<circle cx="48" cy="25.7059" r="2" fill="#B5B5B5"/>
<circle cx="48" cy="32.9412" r="2" fill="#B5B5B5"/>
<circle cx="48" cy="40.1765" r="2" fill="#B5B5B5"/>
<circle cx="48" cy="47.4118" r="2" fill="#B5B5B5"/>
<circle cx="48" cy="54.6471" r="2" fill="#B5B5B5"/>
<circle cx="48" cy="61.8824" r="2" fill="#B5B5B5"/>
<circle cx="48" cy="69.1176" r="2" fill="#B5B5B5"/>
<circle cx="48" cy="76.3529" r="2" fill="#B5B5B5"/>
<circle cx="48" cy="83.5882" r="2" fill="#B5B5B5"/>
<circle cx="48" cy="90.8235" r="2" fill="#B5B5B5"/>
<circle cx="48" cy="98.0588" r="2" fill="#B5B5B5"/>
<circle cx="48" cy="105.294" r="2" fill="#B5B5B5"/>
<circle cx="48" cy="112.529" r="2" fill="#B5B5B5"/>
<circle cx="48" cy="119.765" r="2" fill="#B5B5B5"/>
<circle cx="55" cy="4" r="2" fill="#B5B5B5"/>
<circle cx="55" cy="11.2353" r="2" fill="#B5B5B5"/>
<circle cx="55" cy="18.4706" r="2" fill="#B5B5B5"/>
<circle cx="55" cy="25.7059" r="2" fill="#B5B5B5"/>
<circle cx="55" cy="32.9412" r="2" fill="#B5B5B5"/>
<circle cx="55" cy="40.1765" r="2" fill="#B5B5B5"/>
<circle cx="55" cy="47.4118" r="2" fill="#B5B5B5"/>
<circle cx="55" cy="54.6471" r="2" fill="#B5B5B5"/>
<circle cx="55" cy="61.8824" r="2" fill="#B5B5B5"/>
<circle cx="55" cy="69.1176" r="2" fill="#B5B5B5"/>
<circle cx="55" cy="76.3529" r="2" fill="#B5B5B5"/>
<circle cx="55" cy="83.5882" r="2" fill="#B5B5B5"/>
<circle cx="55" cy="90.8235" r="2" fill="#B5B5B5"/>
<circle cx="55" cy="98.0588" r="2" fill="#B5B5B5"/>
<circle cx="55" cy="105.294" r="2" fill="#B5B5B5"/>
<circle cx="55" cy="112.529" r="2" fill="#B5B5B5"/>
<circle cx="55" cy="119.765" r="2" fill="#B5B5B5"/>
<circle cx="62" cy="4" r="2" fill="#B5B5B5"/>
<circle cx="62" cy="11.2353" r="2" fill="#B5B5B5"/>
<circle cx="62" cy="18.4706" r="2" fill="#B5B5B5"/>
<circle cx="62" cy="25.7059" r="2" fill="#B5B5B5"/>
<circle cx="62" cy="32.9412" r="2" fill="#B5B5B5"/>
<circle cx="62" cy="40.1765" r="2" fill="#B5B5B5"/>
<circle cx="62" cy="47.4118" r="2" fill="#B5B5B5"/>
<circle cx="62" cy="54.6471" r="2" fill="#B5B5B5"/>
<circle cx="62" cy="61.8824" r="2" fill="#B5B5B5"/>
<circle cx="62" cy="69.1176" r="2" fill="#B5B5B5"/>
<circle cx="62" cy="76.3529" r="2" fill="#B5B5B5"/>
<circle cx="62" cy="83.5882" r="2" fill="#B5B5B5"/>
<circle cx="62" cy="90.8235" r="2" fill="#B5B5B5"/>
<circle cx="62" cy="98.0588" r="2" fill="#B5B5B5"/>
<circle cx="62" cy="105.294" r="2" fill="#B5B5B5"/>
<circle cx="62" cy="112.529" r="2" fill="#B5B5B5"/>
<circle cx="62" cy="119.765" r="2" fill="#B5B5B5"/>
<circle cx="69" cy="4" r="2" fill="#B5B5B5"/>
<circle cx="69" cy="11.2353" r="2" fill="#B5B5B5"/>
<circle cx="69" cy="18.4706" r="2" fill="#B5B5B5"/>
<circle cx="69" cy="25.7059" r="2" fill="#B5B5B5"/>
<circle cx="69" cy="32.9412" r="2" fill="#B5B5B5"/>
<circle cx="69" cy="40.1765" r="2" fill="#B5B5B5"/>
<circle cx="69" cy="47.4118" r="2" fill="#B5B5B5"/>
<circle cx="69" cy="54.6471" r="2" fill="#B5B5B5"/>
<circle cx="69" cy="61.8824" r="2" fill="#B5B5B5"/>
<circle cx="69" cy="69.1176" r="2" fill="#B5B5B5"/>
<circle cx="69" cy="76.3529" r="2" fill="#B5B5B5"/>
<circle cx="69" cy="83.5882" r="2" fill="#B5B5B5"/>
<circle cx="69" cy="90.8235" r="2" fill="#B5B5B5"/>
<circle cx="69" cy="98.0588" r="2" fill="#B5B5B5"/>
<circle cx="69" cy="105.294" r="2" fill="#B5B5B5"/>
<circle cx="69" cy="112.529" r="2" fill="#B5B5B5"/>
<circle cx="69" cy="119.765" r="2" fill="#B5B5B5"/>
<circle cx="76" cy="4" r="2" fill="#B5B5B5"/>
<circle cx="76" cy="11.2353" r="2" fill="#B5B5B5"/>
<circle cx="76" cy="18.4706" r="2" fill="#B5B5B5"/>
<circle cx="76" cy="25.7059" r="2" fill="#B5B5B5"/>
<circle cx="76" cy="32.9412" r="2" fill="#B5B5B5"/>
<circle cx="76" cy="40.1765" r="2" fill="#B5B5B5"/>
<circle cx="76" cy="47.4118" r="2" fill="#B5B5B5"/>
<circle cx="76" cy="54.6471" r="2" fill="#B5B5B5"/>
<circle cx="76" cy="61.8824" r="2" fill="#B5B5B5"/>
<circle cx="76" cy="69.1176" r="2" fill="#B5B5B5"/>
<circle cx="76" cy="76.3529" r="2" fill="#B5B5B5"/>
<circle cx="76" cy="83.5882" r="2" fill="#B5B5B5"/>
<circle cx="76" cy="90.8235" r="2" fill="#B5B5B5"/>
<circle cx="76" cy="98.0588" r="2" fill="#B5B5B5"/>
<circle cx="76" cy="105.294" r="2" fill="#B5B5B5"/>
<circle cx="76" cy="112.529" r="2" fill="#B5B5B5"/>
<circle cx="76" cy="119.765" r="2" fill="#B5B5B5"/>
<circle cx="83" cy="4" r="2" fill="#B5B5B5"/>
<circle cx="83" cy="11.2353" r="2" fill="#B5B5B5"/>
<circle cx="83" cy="18.4706" r="2" fill="#B5B5B5"/>
<circle cx="83" cy="25.7059" r="2" fill="#B5B5B5"/>
<circle cx="83" cy="32.9412" r="2" fill="#B5B5B5"/>
<circle cx="83" cy="40.1765" r="2" fill="#B5B5B5"/>
<circle cx="83" cy="47.4118" r="2" fill="#B5B5B5"/>
<circle cx="83" cy="54.6471" r="2" fill="#B5B5B5"/>
<circle cx="83" cy="61.8824" r="2" fill="#B5B5B5"/>
<circle cx="83" cy="69.1176" r="2" fill="#B5B5B5"/>
<circle cx="83" cy="76.3529" r="2" fill="#B5B5B5"/>
<circle cx="83" cy="83.5882" r="2" fill="#B5B5B5"/>
<circle cx="83" cy="90.8235" r="2" fill="#B5B5B5"/>
<circle cx="83" cy="98.0588" r="2" fill="#B5B5B5"/>
<circle cx="83" cy="105.294" r="2" fill="#B5B5B5"/>
<circle cx="83" cy="112.529" r="2" fill="#B5B5B5"/>
<circle cx="83" cy="119.765" r="2" fill="#B5B5B5"/>
<circle cx="90" cy="4" r="2" fill="#B5B5B5"/>
<circle cx="90" cy="11.2353" r="2" fill="#B5B5B5"/>
<circle cx="90" cy="18.4706" r="2" fill="#B5B5B5"/>
<circle cx="90" cy="25.7059" r="2" fill="#B5B5B5"/>
<circle cx="90" cy="32.9412" r="2" fill="#B5B5B5"/>
<circle cx="90" cy="40.1765" r="2" fill="#B5B5B5"/>
<circle cx="90" cy="47.4118" r="2" fill="#B5B5B5"/>
<circle cx="90" cy="54.6471" r="2" fill="#B5B5B5"/>
<circle cx="90" cy="61.8824" r="2" fill="#B5B5B5"/>
<circle cx="90" cy="69.1176" r="2" fill="#B5B5B5"/>
<circle cx="90" cy="76.3529" r="2" fill="#B5B5B5"/>
<circle cx="90" cy="83.5882" r="2" fill="#B5B5B5"/>
<circle cx="90" cy="90.8235" r="2" fill="#B5B5B5"/>
<circle cx="90" cy="98.0588" r="2" fill="#B5B5B5"/>
<circle cx="90" cy="105.294" r="2" fill="#B5B5B5"/>
<circle cx="90" cy="112.529" r="2" fill="#B5B5B5"/>
<circle cx="90" cy="119.765" r="2" fill="#B5B5B5"/>
<circle cx="97" cy="4" r="2" fill="#B5B5B5"/>
<circle cx="97" cy="11.2353" r="2" fill="#B5B5B5"/>
<circle cx="97" cy="18.4706" r="2" fill="#B5B5B5"/>
<circle cx="97" cy="25.7059" r="2" fill="#B5B5B5"/>
<circle cx="97" cy="32.9412" r="2" fill="#B5B5B5"/>
<circle cx="97" cy="40.1765" r="2" fill="#B5B5B5"/>
<circle cx="97" cy="47.4118" r="2" fill="#B5B5B5"/>
<circle cx="97" cy="54.6471" r="2" fill="#B5B5B5"/>
<circle cx="97" cy="61.8824" r="2" fill="#B5B5B5"/>
<circle cx="97" cy="69.1176" r="2" fill="#B5B5B5"/>
<circle cx="97" cy="76.3529" r="2" fill="#B5B5B5"/>
<circle cx="97" cy="83.5882" r="2" fill="#B5B5B5"/>
<circle cx="97" cy="90.8235" r="2" fill="#B5B5B5"/>
<circle cx="97" cy="98.0588" r="2" fill="#B5B5B5"/>
<circle cx="97" cy="105.294" r="2" fill="#B5B5B5"/>
<circle cx="97" cy="112.529" r="2" fill="#B5B5B5"/>
<circle cx="97" cy="119.765" r="2" fill="#B5B5B5"/>
<circle cx="104" cy="4" r="2" fill="#B5B5B5"/>
<circle cx="104" cy="11.2353" r="2" fill="#B5B5B5"/>
<circle cx="104" cy="18.4706" r="2" fill="#B5B5B5"/>
<circle cx="104" cy="25.7059" r="2" fill="#B5B5B5"/>
<circle cx="104" cy="32.9412" r="2" fill="#B5B5B5"/>
<circle cx="104" cy="40.1765" r="2" fill="#B5B5B5"/>
<circle cx="104" cy="47.4118" r="2" fill="#B5B5B5"/>
<circle cx="104" cy="54.6471" r="2" fill="#B5B5B5"/>
<circle cx="104" cy="61.8824" r="2" fill="#B5B5B5"/>
<circle cx="104" cy="69.1176" r="2" fill="#B5B5B5"/>
<circle cx="104" cy="76.3529" r="2" fill="#B5B5B5"/>
<circle cx="104" cy="83.5882" r="2" fill="#B5B5B5"/>
<circle cx="104" cy="90.8235" r="2" fill="#B5B5B5"/>
<circle cx="104" cy="98.0588" r="2" fill="#B5B5B5"/>
<circle cx="104" cy="105.294" r="2" fill="#B5B5B5"/>
<circle cx="104" cy="112.529" r="2" fill="#B5B5B5"/>
<circle cx="104" cy="119.765" r="2" fill="#B5B5B5"/>
<circle cx="111" cy="4" r="2" fill="#B5B5B5"/>
<circle cx="111" cy="11.2353" r="2" fill="#B5B5B5"/>
<circle cx="111" cy="18.4706" r="2" fill="#B5B5B5"/>
<circle cx="111" cy="25.7059" r="2" fill="#B5B5B5"/>
<circle cx="111" cy="32.9412" r="2" fill="#B5B5B5"/>
<circle cx="111" cy="40.1765" r="2" fill="#B5B5B5"/>
<circle cx="111" cy="47.4118" r="2" fill="#B5B5B5"/>
<circle cx="111" cy="54.6471" r="2" fill="#B5B5B5"/>
<circle cx="111" cy="61.8824" r="2" fill="#B5B5B5"/>
<circle cx="111" cy="69.1176" r="2" fill="#B5B5B5"/>
<circle cx="111" cy="76.3529" r="2" fill="#B5B5B5"/>
<circle cx="111" cy="83.5882" r="2" fill="#B5B5B5"/>
<circle cx="111" cy="90.8235" r="2" fill="#B5B5B5"/>
<circle cx="111" cy="98.0588" r="2" fill="#B5B5B5"/>
<circle cx="111" cy="105.294" r="2" fill="#B5B5B5"/>
<circle cx="111" cy="112.529" r="2" fill="#B5B5B5"/>
<circle cx="111" cy="119.765" r="2" fill="#B5B5B5"/>
<circle cx="118" cy="4" r="2" fill="#B5B5B5"/>
<circle cx="118" cy="11.2353" r="2" fill="#B5B5B5"/>
<circle cx="118" cy="18.4706" r="2" fill="#B5B5B5"/>
<circle cx="118" cy="25.7059" r="2" fill="#B5B5B5"/>
<circle cx="118" cy="32.9412" r="2" fill="#B5B5B5"/>
<circle cx="118" cy="40.1765" r="2" fill="#B5B5B5"/>
<circle cx="118" cy="47.4118" r="2" fill="#B5B5B5"/>
<circle cx="118" cy="54.6471" r="2" fill="#B5B5B5"/>
<circle cx="118" cy="61.8824" r="2" fill="#B5B5B5"/>
<circle cx="118" cy="69.1176" r="2" fill="#B5B5B5"/>
<circle cx="118" cy="76.3529" r="2" fill="#B5B5B5"/>
<circle cx="118" cy="83.5882" r="2" fill="#B5B5B5"/>
<circle cx="118" cy="90.8235" r="2" fill="#B5B5B5"/>
<circle cx="118" cy="98.0588" r="2" fill="#B5B5B5"/>
<circle cx="118" cy="105.294" r="2" fill="#B5B5B5"/>
<circle cx="118" cy="112.529" r="2" fill="#B5B5B5"/>
<circle cx="118" cy="119.765" r="2" fill="#B5B5B5"/>
<circle cx="125" cy="4" r="2" fill="#B5B5B5"/>
<circle cx="125" cy="11.2353" r="2" fill="#B5B5B5"/>
<circle cx="125" cy="18.4706" r="2" fill="#B5B5B5"/>
<circle cx="125" cy="25.7059" r="2" fill="#B5B5B5"/>
<circle cx="125" cy="32.9412" r="2" fill="#B5B5B5"/>
<circle cx="125" cy="40.1765" r="2" fill="#B5B5B5"/>
<circle cx="125" cy="47.4118" r="2" fill="#B5B5B5"/>
<circle cx="125" cy="54.6471" r="2" fill="#B5B5B5"/>
<circle cx="125" cy="61.8824" r="2" fill="#B5B5B5"/>
<circle cx="125" cy="69.1176" r="2" fill="#B5B5B5"/>
<circle cx="125" cy="76.3529" r="2" fill="#B5B5B5"/>
<circle cx="125" cy="83.5882" r="2" fill="#B5B5B5"/>
<circle cx="125" cy="90.8235" r="2" fill="#B5B5B5"/>
<circle cx="125" cy="98.0588" r="2" fill="#B5B5B5"/>
<circle cx="125" cy="105.294" r="2" fill="#B5B5B5"/>
<circle cx="125" cy="112.529" r="2" fill="#B5B5B5"/>
<circle cx="125" cy="119.765" r="2" fill="#B5B5B5"/>
<path d="M70.812 53.1821C69.8644 52.2288 68.8136 51.3838 67.6793 50.6625C64.6748 48.7386 61.182 47.7163 57.6144 47.7163C52.6626 47.7071 47.9121 49.6746 44.4168 53.1821L27.4598 70.1523C23.9704 73.6484 22.0092 78.3852 22.0061 83.3246C21.9995 93.6321 30.3499 101.993 40.6574 102C45.6016 102.017 50.3477 100.059 53.8418 96.5608L67.8393 82.5633C68.0936 82.3112 68.2356 81.9672 68.2336 81.6091C68.2294 80.8728 67.629 80.2795 66.8927 80.2837H66.3595C63.4351 80.2941 60.5367 79.7324 57.8278 78.6308C57.3287 78.4253 56.755 78.5412 56.3748 78.924L46.3099 89.0022C43.1845 92.1275 38.1173 92.1275 34.9919 89.0022C31.8665 85.8768 31.8665 80.8096 34.9919 77.6842L52.0156 60.674C55.1384 57.555 60.1974 57.555 63.3202 60.674C65.4249 62.6547 68.7077 62.6547 70.8122 60.674C71.7176 59.7677 72.2666 58.5658 72.3586 57.2879C72.4559 55.7608 71.8928 54.2653 70.812 53.1821Z" fill="#F1F1F1"/>
<path d="M96.5274 27.4667C89.2386 20.1778 77.421 20.1778 70.1321 27.4667L56.1479 41.4374C55.7639 41.8233 55.6532 42.4037 55.868 42.9039C56.0803 43.4055 56.5765 43.7275 57.121 43.717H57.6142C60.5353 43.7117 63.429 44.2777 66.1327 45.3835C66.6318 45.5889 67.2055 45.473 67.5857 45.0902L77.6239 35.0653C80.7493 31.9399 85.8165 31.9399 88.9419 35.0653C92.0673 38.1907 92.0673 43.2579 88.9419 46.3833L76.4374 58.8743L76.3307 58.9943L71.9582 63.3402C68.8353 66.4592 63.7764 66.4592 60.6535 63.3402C58.5489 61.3595 55.2661 61.3595 53.1616 63.3402C52.2504 64.2533 51.7009 65.4658 51.6152 66.7529C51.5177 68.28 52.0809 69.7755 53.1616 70.8589C54.7046 72.4084 56.5099 73.6721 58.4939 74.5915C58.7739 74.7247 59.0538 74.8315 59.3338 74.9514C59.6137 75.0714 59.9069 75.1647 60.1869 75.2714C60.4668 75.3781 60.7601 75.4713 61.04 75.5513L61.8266 75.7646C62.3598 75.8978 62.8931 76.0045 63.4396 76.0978C64.0979 76.1956 64.7609 76.2579 65.426 76.2845H66.3591H66.4391L67.2389 76.1912C67.5321 76.1779 67.8388 76.1112 68.1855 76.1112H68.6387L69.5585 75.978L69.9851 75.898L70.7583 75.738H70.905C74.1795 74.9155 77.1696 73.22 79.5567 70.8322L96.5269 53.8619C103.816 46.5731 103.816 34.7555 96.5274 27.4667Z" fill="#F1F1F1"/>
</g>
<defs>
<clipPath id="clip0_411_2840">
<rect width="124" height="124" rx="20" fill="white"/>
</clipPath>
</defs>
</svg>
