<svg width="127" height="114" viewBox="0 0 127 114" fill="none" xmlns="http://www.w3.org/2000/svg">
<mask id="mask0_348_1557" style="mask-type:alpha" maskUnits="userSpaceOnUse" x="0" y="0" width="127" height="114">
<path fill-rule="evenodd" clip-rule="evenodd" d="M0.875366 16.764C0.875366 12.4869 2.57444 8.38501 5.5988 5.36065C8.62317 2.33628 12.7251 0.637207 17.0022 0.637207H110.873C115.15 0.637207 119.252 2.33628 122.277 5.36065C125.301 8.38501 127 12.4869 127 16.764V32.8909C127 37.168 125.301 41.2699 122.277 44.2943C119.252 47.3186 115.15 49.0177 110.873 49.0177H17.0022C12.7251 49.0177 8.62317 47.3186 5.5988 44.2943C2.57444 41.2699 0.875366 37.168 0.875366 32.8909V16.764ZM110.873 24.8275C110.873 26.966 110.024 29.017 108.511 30.5292C106.999 32.0413 104.948 32.8909 102.81 32.8909C100.671 32.8909 98.6203 32.0413 97.1081 30.5292C95.5959 29.017 94.7464 26.966 94.7464 24.8275C94.7464 22.6889 95.5959 20.6379 97.1081 19.1258C98.6203 17.6136 100.671 16.764 102.81 16.764C104.948 16.764 106.999 17.6136 108.511 19.1258C110.024 20.6379 110.873 22.6889 110.873 24.8275Z" fill="#82828E"/>
<path fill-rule="evenodd" clip-rule="evenodd" d="M0.875366 81.2712C0.875366 76.9941 2.57444 72.8922 5.5988 69.8678C8.62317 66.8434 12.7251 65.1444 17.0022 65.1444L110.873 65.1444C115.15 65.1444 119.252 66.8434 122.277 69.8678C125.301 72.8922 127 76.9941 127 81.2712V97.398C127 101.675 125.301 105.777 122.277 108.801C119.252 111.826 115.15 113.525 110.873 113.525H17.0022C12.7251 113.525 8.62317 111.826 5.5988 108.801C2.57444 105.777 0.875366 101.675 0.875366 97.398V81.2712ZM110.873 89.3346C110.873 91.4732 110.024 93.5241 108.511 95.0363C106.999 96.5485 104.948 97.398 102.81 97.398C100.671 97.398 98.6203 96.5485 97.1081 95.0363C95.5959 93.5241 94.7464 91.4732 94.7464 89.3346C94.7464 87.1961 95.5959 85.1451 97.1081 83.6329C98.6203 82.1207 100.671 81.2712 102.81 81.2712C104.948 81.2712 106.999 82.1207 108.511 83.6329C110.024 85.1451 110.873 87.1961 110.873 89.3346Z" fill="#82828E"/>
</mask>
<g mask="url(#mask0_348_1557)">
<circle cx="119" cy="8" r="2" fill="#B5B5B5"/>
<circle cx="119" cy="17" r="2" fill="#B5B5B5"/>
<circle cx="119" cy="26" r="2" fill="#B5B5B5"/>
<circle cx="119" cy="35" r="2" fill="#B5B5B5"/>
<circle cx="119" cy="44" r="2" fill="#B5B5B5"/>
<circle cx="119" cy="72.5249" r="2" fill="#B5B5B5"/>
<circle cx="119" cy="81.5249" r="2" fill="#B5B5B5"/>
<circle cx="119" cy="90.5249" r="2" fill="#B5B5B5"/>
<circle cx="119" cy="99.5249" r="2" fill="#B5B5B5"/>
<circle cx="119" cy="108.525" r="2" fill="#B5B5B5"/>
<circle r="2" transform="matrix(-1 0 0 1 12.0004 8)" fill="#B5B5B5"/>
<circle r="2" transform="matrix(-1 0 0 1 12.0004 17)" fill="#B5B5B5"/>
<circle r="2" transform="matrix(-1 0 0 1 12.0004 26)" fill="#B5B5B5"/>
<circle r="2" transform="matrix(-1 0 0 1 12.0004 35)" fill="#B5B5B5"/>
<circle r="2" transform="matrix(-1 0 0 1 12.0004 44)" fill="#B5B5B5"/>
<circle r="2" transform="matrix(-1 0 0 1 12.0004 72.5249)" fill="#B5B5B5"/>
<circle r="2" transform="matrix(-1 0 0 1 12.0004 81.5249)" fill="#B5B5B5"/>
<circle r="2" transform="matrix(-1 0 0 1 12.0004 90.5249)" fill="#B5B5B5"/>
<circle r="2" transform="matrix(-1 0 0 1 12.0004 99.5249)" fill="#B5B5B5"/>
<circle r="2" transform="matrix(-1 0 0 1 12.0004 108.525)" fill="#B5B5B5"/>
<circle cx="98.5" cy="3.5" r="2.5" fill="#B5B5B5"/>
<circle cx="98.5" cy="12.1" r="2.5" fill="#B5B5B5"/>
<circle cx="98.5" cy="20.7" r="2.5" fill="#F1F1F1"/>
<circle cx="98.5" cy="29.3" r="2.5" fill="#F1F1F1"/>
<circle cx="98.5" cy="37.9" r="2.5" fill="#B5B5B5"/>
<circle cx="98.5" cy="46.5" r="2.5" fill="#B5B5B5"/>
<circle cx="98.5" cy="68.0249" r="2.5" fill="#B5B5B5"/>
<circle cx="98.5" cy="76.6249" r="2.5" fill="#B5B5B5"/>
<circle cx="98.5" cy="85.2249" r="2.5" fill="#F1F1F1"/>
<circle cx="98.5" cy="93.8249" r="2.5" fill="#F1F1F1"/>
<circle cx="98.5" cy="102.425" r="2.5" fill="#B5B5B5"/>
<circle cx="98.5" cy="111.025" r="2.5" fill="#B5B5B5"/>
<circle r="2.5" transform="matrix(-1 0 0 1 26.4854 3.5)" fill="#B5B5B5"/>
<circle r="2.5" transform="matrix(-1 0 0 1 26.4854 12.1)" fill="#B5B5B5"/>
<circle r="2.5" transform="matrix(-1 0 0 1 26.4854 20.7)" fill="#B5B5B5"/>
<circle r="2.5" transform="matrix(-1 0 0 1 26.4854 29.3)" fill="#B5B5B5"/>
<circle r="2.5" transform="matrix(-1 0 0 1 26.4854 37.9)" fill="#B5B5B5"/>
<circle r="2.5" transform="matrix(-1 0 0 1 26.4854 46.5)" fill="#B5B5B5"/>
<circle r="2.5" transform="matrix(-1 0 0 1 26.4854 68.0249)" fill="#B5B5B5"/>
<circle r="2.5" transform="matrix(-1 0 0 1 26.4854 76.6249)" fill="#B5B5B5"/>
<circle r="2.5" transform="matrix(-1 0 0 1 26.4854 85.2249)" fill="#B5B5B5"/>
<circle r="2.5" transform="matrix(-1 0 0 1 26.4854 93.8249)" fill="#B5B5B5"/>
<circle r="2.5" transform="matrix(-1 0 0 1 26.4854 102.425)" fill="#B5B5B5"/>
<circle r="2.5" transform="matrix(-1 0 0 1 26.4854 111.025)" fill="#B5B5B5"/>
<circle cx="82.5" cy="3.5" r="2.5" fill="#B5B5B5"/>
<circle cx="82.5" cy="12.1" r="2.5" fill="#B5B5B5"/>
<circle cx="82.5" cy="20.7" r="2.5" fill="#B5B5B5"/>
<circle cx="82.5" cy="29.3" r="2.5" fill="#B5B5B5"/>
<circle cx="82.5" cy="37.9" r="2.5" fill="#B5B5B5"/>
<circle cx="82.5" cy="46.5" r="2.5" fill="#B5B5B5"/>
<circle cx="82.5" cy="68.0249" r="2.5" fill="#B5B5B5"/>
<circle cx="82.5" cy="76.6249" r="2.5" fill="#B5B5B5"/>
<circle cx="82.5" cy="85.2249" r="2.5" fill="#B5B5B5"/>
<circle cx="82.5" cy="93.8249" r="2.5" fill="#B5B5B5"/>
<circle cx="82.5" cy="102.425" r="2.5" fill="#B5B5B5"/>
<circle cx="82.5" cy="111.025" r="2.5" fill="#B5B5B5"/>
<circle r="2.5" transform="matrix(-1 0 0 1 42.4854 3.5)" fill="#B5B5B5"/>
<circle r="2.5" transform="matrix(-1 0 0 1 42.4854 12.1)" fill="#B5B5B5"/>
<circle r="2.5" transform="matrix(-1 0 0 1 42.4854 20.7)" fill="#B5B5B5"/>
<circle r="2.5" transform="matrix(-1 0 0 1 42.4854 29.3)" fill="#B5B5B5"/>
<circle r="2.5" transform="matrix(-1 0 0 1 42.4854 37.9)" fill="#B5B5B5"/>
<circle r="2.5" transform="matrix(-1 0 0 1 42.4854 46.5)" fill="#B5B5B5"/>
<circle r="2.5" transform="matrix(-1 0 0 1 42.4854 68.0249)" fill="#B5B5B5"/>
<circle r="2.5" transform="matrix(-1 0 0 1 42.4854 76.6249)" fill="#B5B5B5"/>
<circle r="2.5" transform="matrix(-1 0 0 1 42.4854 85.2249)" fill="#B5B5B5"/>
<circle r="2.5" transform="matrix(-1 0 0 1 42.4854 93.8249)" fill="#B5B5B5"/>
<circle r="2.5" transform="matrix(-1 0 0 1 42.4854 102.425)" fill="#B5B5B5"/>
<circle r="2.5" transform="matrix(-1 0 0 1 42.4854 111.025)" fill="#B5B5B5"/>
<circle cx="66.5" cy="3.5" r="2.5" fill="#B5B5B5"/>
<circle cx="66.5" cy="12.1" r="2.5" fill="#B5B5B5"/>
<circle cx="66.5" cy="20.7" r="2.5" fill="#B5B5B5"/>
<circle cx="66.5" cy="29.3" r="2.5" fill="#B5B5B5"/>
<circle cx="66.5" cy="37.9" r="2.5" fill="#B5B5B5"/>
<circle cx="66.5" cy="46.5" r="2.5" fill="#B5B5B5"/>
<circle cx="66.5" cy="68.0249" r="2.5" fill="#B5B5B5"/>
<circle cx="66.5" cy="76.6249" r="2.5" fill="#B5B5B5"/>
<circle cx="66.5" cy="85.2249" r="2.5" fill="#B5B5B5"/>
<circle cx="66.5" cy="93.8249" r="2.5" fill="#B5B5B5"/>
<circle cx="66.5" cy="102.425" r="2.5" fill="#B5B5B5"/>
<circle cx="66.5" cy="111.025" r="2.5" fill="#B5B5B5"/>
<circle r="2.5" transform="matrix(-1 0 0 1 58.4854 3.5)" fill="#B5B5B5"/>
<circle r="2.5" transform="matrix(-1 0 0 1 58.4854 12.1)" fill="#B5B5B5"/>
<circle r="2.5" transform="matrix(-1 0 0 1 58.4854 20.7)" fill="#B5B5B5"/>
<circle r="2.5" transform="matrix(-1 0 0 1 58.4854 29.3)" fill="#B5B5B5"/>
<circle r="2.5" transform="matrix(-1 0 0 1 58.4854 37.9)" fill="#B5B5B5"/>
<circle r="2.5" transform="matrix(-1 0 0 1 58.4854 46.5)" fill="#B5B5B5"/>
<circle r="2.5" transform="matrix(-1 0 0 1 58.4854 68.0249)" fill="#B5B5B5"/>
<circle r="2.5" transform="matrix(-1 0 0 1 58.4854 76.6249)" fill="#B5B5B5"/>
<circle r="2.5" transform="matrix(-1 0 0 1 58.4854 85.2249)" fill="#B5B5B5"/>
<circle r="2.5" transform="matrix(-1 0 0 1 58.4854 93.8249)" fill="#B5B5B5"/>
<circle r="2.5" transform="matrix(-1 0 0 1 58.4854 102.425)" fill="#B5B5B5"/>
<circle r="2.5" transform="matrix(-1 0 0 1 58.4854 111.025)" fill="#B5B5B5"/>
<circle cx="90.5" cy="3.5" r="2.5" fill="#B5B5B5"/>
<circle cx="90.5" cy="12.1" r="2.5" fill="#B5B5B5"/>
<circle cx="90.5" cy="20.7" r="2.5" fill="#B5B5B5"/>
<circle cx="90.5" cy="29.3" r="2.5" fill="#B5B5B5"/>
<circle cx="90.5" cy="37.9" r="2.5" fill="#B5B5B5"/>
<circle cx="90.5" cy="46.5" r="2.5" fill="#B5B5B5"/>
<circle cx="90.5" cy="68.0249" r="2.5" fill="#B5B5B5"/>
<circle cx="90.5" cy="76.6249" r="2.5" fill="#B5B5B5"/>
<circle cx="90.5" cy="85.2249" r="2.5" fill="#B5B5B5"/>
<circle cx="90.5" cy="93.8249" r="2.5" fill="#B5B5B5"/>
<circle cx="90.5" cy="102.425" r="2.5" fill="#B5B5B5"/>
<circle cx="90.5" cy="111.025" r="2.5" fill="#B5B5B5"/>
<circle r="2.5" transform="matrix(-1 0 0 1 34.4854 3.5)" fill="#B5B5B5"/>
<circle r="2.5" transform="matrix(-1 0 0 1 34.4854 12.1)" fill="#B5B5B5"/>
<circle r="2.5" transform="matrix(-1 0 0 1 34.4854 20.7)" fill="#B5B5B5"/>
<circle r="2.5" transform="matrix(-1 0 0 1 34.4854 29.3)" fill="#B5B5B5"/>
<circle r="2.5" transform="matrix(-1 0 0 1 34.4854 37.9)" fill="#B5B5B5"/>
<circle r="2.5" transform="matrix(-1 0 0 1 34.4854 46.5)" fill="#B5B5B5"/>
<circle r="2.5" transform="matrix(-1 0 0 1 34.4854 68.0249)" fill="#B5B5B5"/>
<circle r="2.5" transform="matrix(-1 0 0 1 34.4854 76.6249)" fill="#B5B5B5"/>
<circle r="2.5" transform="matrix(-1 0 0 1 34.4854 85.2249)" fill="#B5B5B5"/>
<circle r="2.5" transform="matrix(-1 0 0 1 34.4854 93.8249)" fill="#B5B5B5"/>
<circle r="2.5" transform="matrix(-1 0 0 1 34.4854 102.425)" fill="#B5B5B5"/>
<circle r="2.5" transform="matrix(-1 0 0 1 34.4854 111.025)" fill="#B5B5B5"/>
<circle cx="74.5" cy="3.5" r="2.5" fill="#B5B5B5"/>
<circle cx="74.5" cy="12.1" r="2.5" fill="#B5B5B5"/>
<circle cx="74.5" cy="20.7" r="2.5" fill="#B5B5B5"/>
<circle cx="74.5" cy="29.3" r="2.5" fill="#B5B5B5"/>
<circle cx="74.5" cy="37.9" r="2.5" fill="#B5B5B5"/>
<circle cx="74.5" cy="46.5" r="2.5" fill="#B5B5B5"/>
<circle cx="74.5" cy="68.0249" r="2.5" fill="#B5B5B5"/>
<circle cx="74.5" cy="76.6249" r="2.5" fill="#B5B5B5"/>
<circle cx="74.5" cy="85.2249" r="2.5" fill="#B5B5B5"/>
<circle cx="74.5" cy="93.8249" r="2.5" fill="#B5B5B5"/>
<circle cx="74.5" cy="102.425" r="2.5" fill="#B5B5B5"/>
<circle cx="74.5" cy="111.025" r="2.5" fill="#B5B5B5"/>
<circle r="2.5" transform="matrix(-1 0 0 1 50.4854 3.5)" fill="#B5B5B5"/>
<circle r="2.5" transform="matrix(-1 0 0 1 50.4854 12.1)" fill="#B5B5B5"/>
<circle r="2.5" transform="matrix(-1 0 0 1 50.4854 20.7)" fill="#B5B5B5"/>
<circle r="2.5" transform="matrix(-1 0 0 1 50.4854 29.3)" fill="#B5B5B5"/>
<circle r="2.5" transform="matrix(-1 0 0 1 50.4854 37.9)" fill="#B5B5B5"/>
<circle r="2.5" transform="matrix(-1 0 0 1 50.4854 46.5)" fill="#B5B5B5"/>
<circle r="2.5" transform="matrix(-1 0 0 1 50.4854 68.0249)" fill="#B5B5B5"/>
<circle r="2.5" transform="matrix(-1 0 0 1 50.4854 76.6249)" fill="#B5B5B5"/>
<circle r="2.5" transform="matrix(-1 0 0 1 50.4854 85.2249)" fill="#B5B5B5"/>
<circle r="2.5" transform="matrix(-1 0 0 1 50.4854 93.8249)" fill="#B5B5B5"/>
<circle r="2.5" transform="matrix(-1 0 0 1 50.4854 102.425)" fill="#B5B5B5"/>
<circle r="2.5" transform="matrix(-1 0 0 1 50.4854 111.025)" fill="#B5B5B5"/>
<circle cx="58.5" cy="3.5" r="2.5" fill="#B5B5B5"/>
<circle cx="58.5" cy="12.1" r="2.5" fill="#B5B5B5"/>
<circle cx="58.5" cy="20.7" r="2.5" fill="#B5B5B5"/>
<circle cx="58.5" cy="29.3" r="2.5" fill="#B5B5B5"/>
<circle cx="58.5" cy="37.9" r="2.5" fill="#B5B5B5"/>
<circle cx="58.5" cy="46.5" r="2.5" fill="#B5B5B5"/>
<circle cx="58.5" cy="68.0249" r="2.5" fill="#B5B5B5"/>
<circle cx="58.5" cy="76.6249" r="2.5" fill="#B5B5B5"/>
<circle cx="58.5" cy="85.2249" r="2.5" fill="#B5B5B5"/>
<circle cx="58.5" cy="93.8249" r="2.5" fill="#B5B5B5"/>
<circle cx="58.5" cy="102.425" r="2.5" fill="#B5B5B5"/>
<circle cx="58.5" cy="111.025" r="2.5" fill="#B5B5B5"/>
<circle r="2.5" transform="matrix(-1 0 0 1 66.4854 3.5)" fill="#B5B5B5"/>
<circle r="2.5" transform="matrix(-1 0 0 1 66.4854 12.1)" fill="#B5B5B5"/>
<circle r="2.5" transform="matrix(-1 0 0 1 66.4854 20.7)" fill="#B5B5B5"/>
<circle r="2.5" transform="matrix(-1 0 0 1 66.4854 29.3)" fill="#B5B5B5"/>
<circle r="2.5" transform="matrix(-1 0 0 1 66.4854 37.9)" fill="#B5B5B5"/>
<circle r="2.5" transform="matrix(-1 0 0 1 66.4854 46.5)" fill="#B5B5B5"/>
<circle r="2.5" transform="matrix(-1 0 0 1 66.4854 68.0249)" fill="#B5B5B5"/>
<circle r="2.5" transform="matrix(-1 0 0 1 66.4854 76.6249)" fill="#B5B5B5"/>
<circle r="2.5" transform="matrix(-1 0 0 1 66.4854 85.2249)" fill="#B5B5B5"/>
<circle r="2.5" transform="matrix(-1 0 0 1 66.4854 93.8249)" fill="#B5B5B5"/>
<circle r="2.5" transform="matrix(-1 0 0 1 66.4854 102.425)" fill="#B5B5B5"/>
<circle r="2.5" transform="matrix(-1 0 0 1 66.4854 111.025)" fill="#B5B5B5"/>
<circle cx="112" cy="3" r="2" fill="#B5B5B5"/>
<circle cx="112" cy="11.8" r="2" fill="#B5B5B5"/>
<circle cx="112" cy="20.6" r="2" fill="#B5B5B5"/>
<circle cx="112" cy="29.4" r="2" fill="#B5B5B5"/>
<circle cx="112" cy="38.2" r="2" fill="#B5B5B5"/>
<circle cx="112" cy="47" r="2" fill="#B5B5B5"/>
<circle cx="112" cy="67.5249" r="2" fill="#B5B5B5"/>
<circle cx="112" cy="76.3249" r="2" fill="#B5B5B5"/>
<circle cx="112" cy="85.1249" r="2" fill="#B5B5B5"/>
<circle cx="112" cy="93.9249" r="2" fill="#B5B5B5"/>
<circle cx="112" cy="102.725" r="2" fill="#B5B5B5"/>
<circle cx="112" cy="111.525" r="2" fill="#B5B5B5"/>
<circle r="2" transform="matrix(-1 0 0 1 19.0004 3)" fill="#B5B5B5"/>
<circle r="2" transform="matrix(-1 0 0 1 19.0004 11.8)" fill="#B5B5B5"/>
<circle r="2" transform="matrix(-1 0 0 1 19.0004 20.6)" fill="#B5B5B5"/>
<circle r="2" transform="matrix(-1 0 0 1 19.0004 29.4)" fill="#B5B5B5"/>
<circle r="2" transform="matrix(-1 0 0 1 19.0004 38.2)" fill="#B5B5B5"/>
<circle r="2" transform="matrix(-1 0 0 1 19.0004 47)" fill="#B5B5B5"/>
<circle r="2" transform="matrix(-1 0 0 1 19.0004 67.5249)" fill="#B5B5B5"/>
<circle r="2" transform="matrix(-1 0 0 1 19.0004 76.3249)" fill="#B5B5B5"/>
<circle r="2" transform="matrix(-1 0 0 1 19.0004 85.1249)" fill="#B5B5B5"/>
<circle r="2" transform="matrix(-1 0 0 1 19.0004 93.9249)" fill="#B5B5B5"/>
<circle r="2" transform="matrix(-1 0 0 1 19.0004 102.725)" fill="#B5B5B5"/>
<circle r="2" transform="matrix(-1 0 0 1 19.0004 111.525)" fill="#B5B5B5"/>
<circle cx="105.5" cy="3" r="2" fill="#B5B5B5"/>
<circle cx="105.5" cy="11.8" r="2" fill="#B5B5B5"/>
<circle cx="105.5" cy="20.6" r="2" fill="#B5B5B5"/>
<circle cx="105.5" cy="29.4" r="2" fill="#B5B5B5"/>
<circle cx="105.5" cy="38.2" r="2" fill="#B5B5B5"/>
<circle cx="105.5" cy="47" r="2" fill="#B5B5B5"/>
<circle cx="105.5" cy="67.5249" r="2" fill="#B5B5B5"/>
<circle cx="105.5" cy="76.3249" r="2" fill="#B5B5B5"/>
<circle cx="105.5" cy="85.1249" r="2" fill="#B5B5B5"/>
<circle cx="105.5" cy="93.9249" r="2" fill="#B5B5B5"/>
<circle cx="105.5" cy="102.725" r="2" fill="#B5B5B5"/>
<circle cx="105.5" cy="111.525" r="2" fill="#B5B5B5"/>
<circle cx="125" cy="14" r="2" fill="#B5B5B5"/>
<circle cx="125" cy="21" r="2" fill="#B5B5B5"/>
<circle cx="125" cy="28" r="2" fill="#B5B5B5"/>
<circle cx="125" cy="35" r="2" fill="#B5B5B5"/>
<circle cx="125" cy="78.5249" r="2" fill="#B5B5B5"/>
<circle cx="125" cy="85.5249" r="2" fill="#B5B5B5"/>
<circle cx="125" cy="92.5249" r="2" fill="#B5B5B5"/>
<circle cx="125" cy="99.5249" r="2" fill="#B5B5B5"/>
<circle r="2" transform="matrix(-1 0 0 1 5.00037 14)" fill="#B5B5B5"/>
<circle r="2" transform="matrix(-1 0 0 1 5.00037 21)" fill="#B5B5B5"/>
<circle r="2" transform="matrix(-1 0 0 1 5.00037 28)" fill="#B5B5B5"/>
<circle r="2" transform="matrix(-1 0 0 1 5.00037 35)" fill="#B5B5B5"/>
<circle r="2" transform="matrix(-1 0 0 1 5.00003 78.5249)" fill="#B5B5B5"/>
<circle r="2" transform="matrix(-1 0 0 1 5.00003 85.5249)" fill="#B5B5B5"/>
<circle r="2" transform="matrix(-1 0 0 1 5.00003 92.5249)" fill="#B5B5B5"/>
<circle r="2" transform="matrix(-1 0 0 1 5.00003 99.5249)" fill="#B5B5B5"/>
</g>
</svg>
