<svg width="124" height="124" viewBox="0 0 124 124" fill="none" xmlns="http://www.w3.org/2000/svg">
<g clip-path="url(#clip0_406_2394)">
<circle cx="6" cy="12" r="2" fill="#B5B5B5"/>
<circle cx="6" cy="19.6154" r="2" fill="#B5B5B5"/>
<circle cx="6" cy="27.2308" r="2" fill="#B5B5B5"/>
<circle cx="6" cy="34.8462" r="2" fill="#B5B5B5"/>
<circle cx="6" cy="42.4615" r="2" fill="#B5B5B5"/>
<circle cx="6" cy="50.0769" r="2" fill="#B5B5B5"/>
<circle cx="6" cy="57.6923" r="2" fill="#B5B5B5"/>
<circle cx="6" cy="65.3077" r="2" fill="#B5B5B5"/>
<circle cx="6" cy="72.9231" r="2" fill="#B5B5B5"/>
<circle cx="6" cy="80.5385" r="2" fill="#B5B5B5"/>
<circle cx="6" cy="88.1538" r="2" fill="#B5B5B5"/>
<circle cx="6" cy="95.7692" r="2" fill="#B5B5B5"/>
<circle cx="6" cy="103.385" r="2" fill="#B5B5B5"/>
<circle cx="6" cy="111" r="2" fill="#B5B5B5"/>
<circle cx="13.5" cy="4.5" r="2.5" fill="#B5B5B5"/>
<circle cx="13.5" cy="12.125" r="2.5" fill="#B5B5B5"/>
<circle cx="13.5" cy="19.75" r="2.5" fill="#B5B5B5"/>
<circle cx="13.5" cy="27.375" r="2.5" fill="#B5B5B5"/>
<circle cx="13.5" cy="35" r="2.5" fill="#B5B5B5"/>
<circle cx="13.5" cy="42.625" r="2.5" fill="#B5B5B5"/>
<circle cx="13.5" cy="50.25" r="2.5" fill="#B5B5B5"/>
<circle cx="13.5" cy="57.875" r="2.5" fill="#B5B5B5"/>
<circle cx="13.5" cy="65.5" r="2.5" fill="#B5B5B5"/>
<circle cx="13.5" cy="73.125" r="2.5" fill="#B5B5B5"/>
<circle cx="13.5" cy="80.75" r="2.5" fill="#B5B5B5"/>
<circle cx="13.5" cy="88.375" r="2.5" fill="#B5B5B5"/>
<circle cx="13.5" cy="96" r="2.5" fill="#B5B5B5"/>
<circle cx="13.5" cy="103.625" r="2.5" fill="#B5B5B5"/>
<circle cx="13.5" cy="111.25" r="2.5" fill="#B5B5B5"/>
<circle cx="13.5" cy="118.875" r="2.5" fill="#B5B5B5"/>
<circle cx="20.5" cy="4.5" r="2.5" fill="#B5B5B5"/>
<circle cx="20.5" cy="12.125" r="2.5" fill="#B5B5B5"/>
<circle cx="20.5" cy="19.75" r="2.5" fill="#B5B5B5"/>
<circle cx="20.5" cy="27.375" r="2.5" fill="#B5B5B5"/>
<circle cx="20.5" cy="35" r="2.5" fill="#B5B5B5"/>
<circle cx="20.5" cy="42.625" r="2.5" fill="#B5B5B5"/>
<circle cx="20.5" cy="50.25" r="2.5" fill="#B5B5B5"/>
<circle cx="20.5" cy="57.875" r="2.5" fill="#B5B5B5"/>
<circle cx="20.5" cy="65.5" r="2.5" fill="#B5B5B5"/>
<circle cx="20.5" cy="73.125" r="2.5" fill="#B5B5B5"/>
<circle cx="20.5" cy="80.75" r="2.5" fill="#B5B5B5"/>
<circle cx="20.5" cy="88.375" r="2.5" fill="#B5B5B5"/>
<circle cx="20.5" cy="96" r="2.5" fill="#B5B5B5"/>
<circle cx="20.5" cy="103.625" r="2.5" fill="#B5B5B5"/>
<circle cx="20.5" cy="111.25" r="2.5" fill="#B5B5B5"/>
<circle cx="20.5" cy="118.875" r="2.5" fill="#B5B5B5"/>
<circle cx="27.5" cy="4.5" r="2.5" fill="#B5B5B5"/>
<circle cx="27.5" cy="12.125" r="2.5" fill="#B5B5B5"/>
<circle cx="27.5" cy="19.75" r="2.5" fill="#B5B5B5"/>
<circle cx="27.5" cy="27.375" r="2.5" fill="#B5B5B5"/>
<circle cx="27.5" cy="35" r="2.5" fill="#B5B5B5"/>
<circle cx="27.5" cy="42.625" r="2.5" fill="#B5B5B5"/>
<circle cx="27.5" cy="50.25" r="2.5" fill="#B5B5B5"/>
<circle cx="27.5" cy="57.875" r="2.5" fill="#B5B5B5"/>
<circle cx="27.5" cy="65.5" r="2.5" fill="#B5B5B5"/>
<circle cx="27.5" cy="73.125" r="2.5" fill="#B5B5B5"/>
<circle cx="27.5" cy="80.75" r="2.5" fill="#B5B5B5"/>
<circle cx="27.5" cy="88.375" r="2.5" fill="#B5B5B5"/>
<circle cx="27.5" cy="96" r="2.5" fill="#B5B5B5"/>
<circle cx="27.5" cy="103.625" r="2.5" fill="#B5B5B5"/>
<circle cx="27.5" cy="111.25" r="2.5" fill="#B5B5B5"/>
<circle cx="27.5" cy="118.875" r="2.5" fill="#B5B5B5"/>
<circle cx="34.5" cy="4.5" r="2.5" fill="#B5B5B5"/>
<circle cx="34.5" cy="12.125" r="2.5" fill="#B5B5B5"/>
<circle cx="34.5" cy="19.75" r="2.5" fill="#B5B5B5"/>
<circle cx="34.5" cy="27.375" r="2.5" fill="#B5B5B5"/>
<circle cx="34.5" cy="35" r="2.5" fill="#B5B5B5"/>
<circle cx="34.5" cy="42.625" r="2.5" fill="#B5B5B5"/>
<circle cx="34.5" cy="50.25" r="2.5" fill="#B5B5B5"/>
<circle cx="34.5" cy="57.875" r="2.5" fill="#B5B5B5"/>
<circle cx="34.5" cy="65.5" r="2.5" fill="#B5B5B5"/>
<circle cx="34.5" cy="73.125" r="2.5" fill="#B5B5B5"/>
<circle cx="34.5" cy="80.75" r="2.5" fill="#B5B5B5"/>
<circle cx="34.5" cy="88.375" r="2.5" fill="#B5B5B5"/>
<circle cx="34.5" cy="96" r="2.5" fill="#B5B5B5"/>
<circle cx="34.5" cy="103.625" r="2.5" fill="#B5B5B5"/>
<circle cx="34.5" cy="111.25" r="2.5" fill="#B5B5B5"/>
<circle cx="34.5" cy="118.875" r="2.5" fill="#B5B5B5"/>
<circle cx="41.5" cy="4.5" r="2.5" fill="#B5B5B5"/>
<circle cx="41.5" cy="12.125" r="2.5" fill="#B5B5B5"/>
<circle cx="41.5" cy="19.75" r="2.5" fill="#B5B5B5"/>
<circle cx="41.5" cy="27.375" r="2.5" fill="#B5B5B5"/>
<circle cx="41.5" cy="35" r="2.5" fill="#B5B5B5"/>
<circle cx="41.5" cy="42.625" r="2.5" fill="#B5B5B5"/>
<circle cx="41.5" cy="50.25" r="2.5" fill="#B5B5B5"/>
<circle cx="41.5" cy="57.875" r="2.5" fill="#B5B5B5"/>
<circle cx="41.5" cy="65.5" r="2.5" fill="#B5B5B5"/>
<circle cx="41.5" cy="73.125" r="2.5" fill="#B5B5B5"/>
<circle cx="41.5" cy="80.75" r="2.5" fill="#B5B5B5"/>
<circle cx="41.5" cy="88.375" r="2.5" fill="#B5B5B5"/>
<circle cx="41.5" cy="96" r="2.5" fill="#B5B5B5"/>
<circle cx="41.5" cy="103.625" r="2.5" fill="#B5B5B5"/>
<circle cx="41.5" cy="111.25" r="2.5" fill="#B5B5B5"/>
<circle cx="41.5" cy="118.875" r="2.5" fill="#B5B5B5"/>
<circle cx="48.5" cy="4.5" r="2.5" fill="#B5B5B5"/>
<circle cx="48.5" cy="12.125" r="2.5" fill="#B5B5B5"/>
<circle cx="48.5" cy="19.75" r="2.5" fill="#B5B5B5"/>
<circle cx="48.5" cy="27.375" r="2.5" fill="#B5B5B5"/>
<circle cx="48.5" cy="35" r="2.5" fill="#B5B5B5"/>
<circle cx="48.5" cy="42.625" r="2.5" fill="#B5B5B5"/>
<circle cx="48.5" cy="50.25" r="2.5" fill="#B5B5B5"/>
<circle cx="48.5" cy="57.875" r="2.5" fill="#B5B5B5"/>
<circle cx="48.5" cy="65.5" r="2.5" fill="#B5B5B5"/>
<circle cx="48.5" cy="73.125" r="2.5" fill="#B5B5B5"/>
<circle cx="48.5" cy="80.75" r="2.5" fill="#B5B5B5"/>
<circle cx="48.5" cy="88.375" r="2.5" fill="#B5B5B5"/>
<circle cx="48.5" cy="96" r="2.5" fill="#B5B5B5"/>
<circle cx="48.5" cy="103.625" r="2.5" fill="#B5B5B5"/>
<circle cx="48.5" cy="111.25" r="2.5" fill="#B5B5B5"/>
<circle cx="48.5" cy="118.875" r="2.5" fill="#B5B5B5"/>
<circle cx="55.5" cy="4.5" r="2.5" fill="#B5B5B5"/>
<circle cx="55.5" cy="12.125" r="2.5" fill="#B5B5B5"/>
<circle cx="55.5" cy="19.75" r="2.5" fill="#B5B5B5"/>
<circle cx="55.5" cy="27.375" r="2.5" fill="#B5B5B5"/>
<circle cx="55.5" cy="35" r="2.5" fill="#B5B5B5"/>
<circle cx="55.5" cy="42.625" r="2.5" fill="#B5B5B5"/>
<circle cx="55.5" cy="50.25" r="2.5" fill="#B5B5B5"/>
<circle cx="55.5" cy="57.875" r="2.5" fill="#B5B5B5"/>
<circle cx="55.5" cy="65.5" r="2.5" fill="#B5B5B5"/>
<circle cx="55.5" cy="73.125" r="2.5" fill="#B5B5B5"/>
<circle cx="55.5" cy="80.75" r="2.5" fill="#B5B5B5"/>
<circle cx="55.5" cy="88.375" r="2.5" fill="#B5B5B5"/>
<circle cx="55.5" cy="96" r="2.5" fill="#B5B5B5"/>
<circle cx="55.5" cy="103.625" r="2.5" fill="#B5B5B5"/>
<circle cx="55.5" cy="111.25" r="2.5" fill="#B5B5B5"/>
<circle cx="55.5" cy="118.875" r="2.5" fill="#B5B5B5"/>
<circle cx="62.5" cy="4.5" r="2.5" fill="#B5B5B5"/>
<circle cx="62.5" cy="12.125" r="2.5" fill="#B5B5B5"/>
<circle cx="62.5" cy="19.75" r="2.5" fill="#B5B5B5"/>
<circle cx="62.5" cy="27.375" r="2.5" fill="#B5B5B5"/>
<circle cx="62.5" cy="35" r="2.5" fill="#B5B5B5"/>
<circle cx="62.5" cy="42.625" r="2.5" fill="#B5B5B5"/>
<circle cx="62.5" cy="50.25" r="2.5" fill="#B5B5B5"/>
<circle cx="62.5" cy="57.875" r="2.5" fill="#B5B5B5"/>
<circle cx="62.5" cy="65.5" r="2.5" fill="#B5B5B5"/>
<circle cx="62.5" cy="73.125" r="2.5" fill="#B5B5B5"/>
<circle cx="62.5" cy="80.75" r="2.5" fill="#B5B5B5"/>
<circle cx="62.5" cy="88.375" r="2.5" fill="#B5B5B5"/>
<circle cx="62.5" cy="96" r="2.5" fill="#B5B5B5"/>
<circle cx="62.5" cy="103.625" r="2.5" fill="#B5B5B5"/>
<circle cx="62.5" cy="111.25" r="2.5" fill="#B5B5B5"/>
<circle cx="62.5" cy="118.875" r="2.5" fill="#B5B5B5"/>
<circle cx="69.5" cy="4.5" r="2.5" fill="#B5B5B5"/>
<circle cx="69.5" cy="12.125" r="2.5" fill="#B5B5B5"/>
<circle cx="69.5" cy="19.75" r="2.5" fill="#B5B5B5"/>
<circle cx="69.5" cy="27.375" r="2.5" fill="#B5B5B5"/>
<circle cx="69.5" cy="35" r="2.5" fill="#B5B5B5"/>
<circle cx="69.5" cy="42.625" r="2.5" fill="#B5B5B5"/>
<circle cx="69.5" cy="50.25" r="2.5" fill="#B5B5B5"/>
<circle cx="69.5" cy="57.875" r="2.5" fill="#B5B5B5"/>
<circle cx="69.5" cy="65.5" r="2.5" fill="#B5B5B5"/>
<circle cx="69.5" cy="73.125" r="2.5" fill="#B5B5B5"/>
<circle cx="69.5" cy="80.75" r="2.5" fill="#B5B5B5"/>
<circle cx="69.5" cy="88.375" r="2.5" fill="#B5B5B5"/>
<circle cx="69.5" cy="96" r="2.5" fill="#B5B5B5"/>
<circle cx="69.5" cy="103.625" r="2.5" fill="#B5B5B5"/>
<circle cx="69.5" cy="111.25" r="2.5" fill="#B5B5B5"/>
<circle cx="69.5" cy="118.875" r="2.5" fill="#B5B5B5"/>
<circle cx="76.5" cy="4.5" r="2.5" fill="#B5B5B5"/>
<circle cx="76.5" cy="12.125" r="2.5" fill="#B5B5B5"/>
<circle cx="76.5" cy="19.75" r="2.5" fill="#B5B5B5"/>
<circle cx="76.5" cy="27.375" r="2.5" fill="#B5B5B5"/>
<circle cx="76.5" cy="35" r="2.5" fill="#B5B5B5"/>
<circle cx="76.5" cy="42.625" r="2.5" fill="#B5B5B5"/>
<circle cx="76.5" cy="50.25" r="2.5" fill="#B5B5B5"/>
<circle cx="76.5" cy="57.875" r="2.5" fill="#B5B5B5"/>
<circle cx="76.5" cy="65.5" r="2.5" fill="#B5B5B5"/>
<circle cx="76.5" cy="73.125" r="2.5" fill="#B5B5B5"/>
<circle cx="76.5" cy="80.75" r="2.5" fill="#B5B5B5"/>
<circle cx="76.5" cy="88.375" r="2.5" fill="#B5B5B5"/>
<circle cx="76.5" cy="96" r="2.5" fill="#B5B5B5"/>
<circle cx="76.5" cy="103.625" r="2.5" fill="#B5B5B5"/>
<circle cx="76.5" cy="111.25" r="2.5" fill="#B5B5B5"/>
<circle cx="76.5" cy="118.875" r="2.5" fill="#B5B5B5"/>
<circle cx="83.5" cy="4.5" r="2.5" fill="#B5B5B5"/>
<circle cx="83.5" cy="12.125" r="2.5" fill="#B5B5B5"/>
<circle cx="83.5" cy="19.75" r="2.5" fill="#B5B5B5"/>
<circle cx="83.5" cy="27.375" r="2.5" fill="#B5B5B5"/>
<circle cx="83.5" cy="35" r="2.5" fill="#B5B5B5"/>
<circle cx="83.5" cy="42.625" r="2.5" fill="#B5B5B5"/>
<circle cx="83.5" cy="50.25" r="2.5" fill="#B5B5B5"/>
<circle cx="83.5" cy="57.875" r="2.5" fill="#B5B5B5"/>
<circle cx="83.5" cy="65.5" r="2.5" fill="#B5B5B5"/>
<circle cx="83.5" cy="73.125" r="2.5" fill="#B5B5B5"/>
<circle cx="83.5" cy="80.75" r="2.5" fill="#B5B5B5"/>
<circle cx="83.5" cy="88.375" r="2.5" fill="#B5B5B5"/>
<circle cx="83.5" cy="96" r="2.5" fill="#B5B5B5"/>
<circle cx="83.5" cy="103.625" r="2.5" fill="#B5B5B5"/>
<circle cx="83.5" cy="111.25" r="2.5" fill="#B5B5B5"/>
<circle cx="83.5" cy="118.875" r="2.5" fill="#B5B5B5"/>
<circle cx="90.5" cy="4.5" r="2.5" fill="#B5B5B5"/>
<circle cx="90.5" cy="12.125" r="2.5" fill="#B5B5B5"/>
<circle cx="90.5" cy="19.75" r="2.5" fill="#B5B5B5"/>
<circle cx="90.5" cy="27.375" r="2.5" fill="#B5B5B5"/>
<circle cx="90.5" cy="35" r="2.5" fill="#B5B5B5"/>
<circle cx="90.5" cy="42.625" r="2.5" fill="#B5B5B5"/>
<circle cx="90.5" cy="50.25" r="2.5" fill="#B5B5B5"/>
<circle cx="90.5" cy="57.875" r="2.5" fill="#B5B5B5"/>
<circle cx="90.5" cy="65.5" r="2.5" fill="#B5B5B5"/>
<circle cx="90.5" cy="73.125" r="2.5" fill="#B5B5B5"/>
<circle cx="90.5" cy="80.75" r="2.5" fill="#B5B5B5"/>
<circle cx="90.5" cy="88.375" r="2.5" fill="#B5B5B5"/>
<circle cx="90.5" cy="96" r="2.5" fill="#B5B5B5"/>
<circle cx="90.5" cy="103.625" r="2.5" fill="#B5B5B5"/>
<circle cx="90.5" cy="111.25" r="2.5" fill="#B5B5B5"/>
<circle cx="90.5" cy="118.875" r="2.5" fill="#B5B5B5"/>
<circle cx="97.5" cy="4.5" r="2.5" fill="#B5B5B5"/>
<circle cx="97.5" cy="12.125" r="2.5" fill="#B5B5B5"/>
<circle cx="97.5" cy="19.75" r="2.5" fill="#B5B5B5"/>
<circle cx="97.5" cy="27.375" r="2.5" fill="#B5B5B5"/>
<circle cx="97.5" cy="35" r="2.5" fill="#B5B5B5"/>
<circle cx="97.5" cy="42.625" r="2.5" fill="#B5B5B5"/>
<circle cx="97.5" cy="50.25" r="2.5" fill="#B5B5B5"/>
<circle cx="97.5" cy="57.875" r="2.5" fill="#B5B5B5"/>
<circle cx="97.5" cy="65.5" r="2.5" fill="#B5B5B5"/>
<circle cx="97.5" cy="73.125" r="2.5" fill="#B5B5B5"/>
<circle cx="97.5" cy="80.75" r="2.5" fill="#B5B5B5"/>
<circle cx="97.5" cy="88.375" r="2.5" fill="#B5B5B5"/>
<circle cx="97.5" cy="96" r="2.5" fill="#B5B5B5"/>
<circle cx="97.5" cy="103.625" r="2.5" fill="#B5B5B5"/>
<circle cx="97.5" cy="111.25" r="2.5" fill="#B5B5B5"/>
<circle cx="97.5" cy="118.875" r="2.5" fill="#B5B5B5"/>
<circle cx="104.5" cy="4.5" r="2.5" fill="#B5B5B5"/>
<circle cx="104.5" cy="12.125" r="2.5" fill="#B5B5B5"/>
<circle cx="104.5" cy="19.75" r="2.5" fill="#B5B5B5"/>
<circle cx="104.5" cy="27.375" r="2.5" fill="#B5B5B5"/>
<circle cx="104.5" cy="35" r="2.5" fill="#B5B5B5"/>
<circle cx="104.5" cy="42.625" r="2.5" fill="#B5B5B5"/>
<circle cx="104.5" cy="50.25" r="2.5" fill="#B5B5B5"/>
<circle cx="104.5" cy="57.875" r="2.5" fill="#B5B5B5"/>
<circle cx="104.5" cy="65.5" r="2.5" fill="#B5B5B5"/>
<circle cx="104.5" cy="73.125" r="2.5" fill="#B5B5B5"/>
<circle cx="104.5" cy="80.75" r="2.5" fill="#B5B5B5"/>
<circle cx="104.5" cy="88.375" r="2.5" fill="#B5B5B5"/>
<circle cx="104.5" cy="96" r="2.5" fill="#B5B5B5"/>
<circle cx="104.5" cy="103.625" r="2.5" fill="#B5B5B5"/>
<circle cx="104.5" cy="111.25" r="2.5" fill="#B5B5B5"/>
<circle cx="104.5" cy="118.875" r="2.5" fill="#B5B5B5"/>
<circle cx="111.5" cy="4.5" r="2.5" fill="#B5B5B5"/>
<circle cx="111.5" cy="12.125" r="2.5" fill="#B5B5B5"/>
<circle cx="111.5" cy="19.75" r="2.5" fill="#B5B5B5"/>
<circle cx="111.5" cy="27.375" r="2.5" fill="#B5B5B5"/>
<circle cx="111.5" cy="35" r="2.5" fill="#B5B5B5"/>
<circle cx="111.5" cy="42.625" r="2.5" fill="#B5B5B5"/>
<circle cx="111.5" cy="50.25" r="2.5" fill="#B5B5B5"/>
<circle cx="111.5" cy="57.875" r="2.5" fill="#B5B5B5"/>
<circle cx="111.5" cy="65.5" r="2.5" fill="#B5B5B5"/>
<circle cx="111.5" cy="73.125" r="2.5" fill="#B5B5B5"/>
<circle cx="111.5" cy="80.75" r="2.5" fill="#B5B5B5"/>
<circle cx="111.5" cy="88.375" r="2.5" fill="#B5B5B5"/>
<circle cx="111.5" cy="96" r="2.5" fill="#B5B5B5"/>
<circle cx="111.5" cy="103.625" r="2.5" fill="#B5B5B5"/>
<circle cx="111.5" cy="111.25" r="2.5" fill="#B5B5B5"/>
<circle cx="111.5" cy="118.875" r="2.5" fill="#B5B5B5"/>
<circle cx="119" cy="12" r="2" fill="#B5B5B5"/>
<circle cx="119" cy="19.6154" r="2" fill="#B5B5B5"/>
<circle cx="119" cy="27.2308" r="2" fill="#B5B5B5"/>
<circle cx="119" cy="34.8462" r="2" fill="#B5B5B5"/>
<circle cx="119" cy="42.4615" r="2" fill="#B5B5B5"/>
<circle cx="119" cy="50.0769" r="2" fill="#B5B5B5"/>
<circle cx="119" cy="57.6923" r="2" fill="#B5B5B5"/>
<circle cx="119" cy="65.3077" r="2" fill="#B5B5B5"/>
<circle cx="119" cy="72.9231" r="2" fill="#B5B5B5"/>
<circle cx="119" cy="80.5385" r="2" fill="#B5B5B5"/>
<circle cx="119" cy="88.1538" r="2" fill="#B5B5B5"/>
<circle cx="119" cy="95.7692" r="2" fill="#B5B5B5"/>
<circle cx="119" cy="103.385" r="2" fill="#B5B5B5"/>
<circle cx="119" cy="111" r="2" fill="#B5B5B5"/>
<path d="M100 67.5508C100 78.2923 91.3001 87 80.5682 87C73.2888 87 66.9443 82.9938 63.6156 77.064C62.0368 74.2516 61.1364 71.0065 61.1364 67.5508C61.1364 56.8094 69.8363 48.1017 80.5682 48.1017C91.3001 48.1017 100 56.8094 100 67.5508Z" fill="#F1F1F1"/>
<path fill-rule="evenodd" clip-rule="evenodd" d="M80.1364 56.7458C80.1364 66.7608 73.0461 75.1183 63.6156 77.064C62.2572 77.3443 60.8503 77.4915 59.4091 77.4915C57.3436 77.4915 55.3487 77.1891 53.4661 76.6262C53.96 75.1314 54.2273 73.5334 54.2273 71.8729C54.2273 63.5184 47.4607 56.7458 39.1136 56.7458C38.9692 56.7458 38.8253 56.7478 38.6818 56.7518L38.6818 56.7458C38.6818 45.2882 47.9617 36 59.4091 36C70.8564 36 80.1364 45.2882 80.1364 56.7458Z" fill="#F1F1F1"/>
<path d="M54.2273 71.8729C54.2273 63.5184 47.4607 56.7458 39.1136 56.7458C38.9692 56.7458 38.8253 56.7478 38.6818 56.7518C38.6845 66.1394 44.9169 74.0696 53.4661 76.6262C53.96 75.1314 54.2273 73.5334 54.2273 71.8729Z" fill="#F1F1F1"/>
<path d="M24 71.8729C24 80.2274 30.7666 87 39.1136 87C45.8016 87 51.475 82.652 53.4661 76.6262C44.9169 74.0696 38.6845 66.1394 38.6818 56.7518C30.5345 56.9806 24 63.663 24 71.8729Z" fill="#F1F1F1"/>
<path d="M63.6156 77.064C62.2572 77.3443 60.8503 77.4915 59.4091 77.4915C57.3436 77.4915 55.3487 77.1891 53.4661 76.6262C51.475 82.652 45.8016 87 39.1136 87H80.5682C73.2888 87 66.9443 82.9938 63.6156 77.064Z" fill="#F1F1F1"/>
</g>
<defs>
<clipPath id="clip0_406_2394">
<rect width="124" height="124" rx="20" fill="white"/>
</clipPath>
</defs>
</svg>
